<?xml version="1.0" encoding="utf-8" standalone="no"?>
<!DOCTYPE svg PUBLIC "-//W3C//DTD SVG 1.1//EN"
  "http://www.w3.org/Graphics/SVG/1.1/DTD/svg11.dtd">
<!-- Created with matplotlib (https://matplotlib.org/) -->
<svg height="360pt" version="1.1" viewBox="0 0 648 360" width="648pt" xmlns="http://www.w3.org/2000/svg" xmlns:xlink="http://www.w3.org/1999/xlink">
 <defs>
  <style type="text/css">
*{stroke-linecap:butt;stroke-linejoin:round;}
  </style>
 </defs>
 <g id="figure_1">
  <g id="patch_1">
   <path d="M 0 360 
L 648 360 
L 648 0 
L 0 0 
z
" style="fill:#ffffff;"/>
  </g>
  <g id="axes_1">
   <g id="patch_2">
    <path d="M 60.175 297.5 
L 637.2 297.5 
L 637.2 31.8 
L 60.175 31.8 
z
" style="fill:#ffffff;"/>
   </g>
   <g id="matplotlib.axis_1">
    <g id="xtick_1">
     <g id="line2d_1">
      <defs>
       <path d="M 0 0 
L 0 3.5 
" id="m550503a28f" style="stroke:#000000;stroke-width:0.8;"/>
      </defs>
      <g>
       <use style="stroke:#000000;stroke-width:0.8;" x="86.403411" xlink:href="#m550503a28f" y="297.5"/>
      </g>
     </g>
     <g id="text_1">
      <!-- $\mathdefault{10^{-2}}$ -->
      <defs>
       <path d="M 12.40625 8.296875 
L 28.515625 8.296875 
L 28.515625 63.921875 
L 10.984375 60.40625 
L 10.984375 69.390625 
L 28.421875 72.90625 
L 38.28125 72.90625 
L 38.28125 8.296875 
L 54.390625 8.296875 
L 54.390625 0 
L 12.40625 0 
z
" id="DejaVuSans-49"/>
       <path d="M 31.78125 66.40625 
Q 24.171875 66.40625 20.328125 58.90625 
Q 16.5 51.421875 16.5 36.375 
Q 16.5 21.390625 20.328125 13.890625 
Q 24.171875 6.390625 31.78125 6.390625 
Q 39.453125 6.390625 43.28125 13.890625 
Q 47.125 21.390625 47.125 36.375 
Q 47.125 51.421875 43.28125 58.90625 
Q 39.453125 66.40625 31.78125 66.40625 
z
M 31.78125 74.21875 
Q 44.046875 74.21875 50.515625 64.515625 
Q 56.984375 54.828125 56.984375 36.375 
Q 56.984375 17.96875 50.515625 8.265625 
Q 44.046875 -1.421875 31.78125 -1.421875 
Q 19.53125 -1.421875 13.0625 8.265625 
Q 6.59375 17.96875 6.59375 36.375 
Q 6.59375 54.828125 13.0625 64.515625 
Q 19.53125 74.21875 31.78125 74.21875 
z
" id="DejaVuSans-48"/>
       <path d="M 10.59375 35.5 
L 73.1875 35.5 
L 73.1875 27.203125 
L 10.59375 27.203125 
z
" id="DejaVuSans-8722"/>
       <path d="M 19.1875 8.296875 
L 53.609375 8.296875 
L 53.609375 0 
L 7.328125 0 
L 7.328125 8.296875 
Q 12.9375 14.109375 22.625 23.890625 
Q 32.328125 33.6875 34.8125 36.53125 
Q 39.546875 41.84375 41.421875 45.53125 
Q 43.3125 49.21875 43.3125 52.78125 
Q 43.3125 58.59375 39.234375 62.25 
Q 35.15625 65.921875 28.609375 65.921875 
Q 23.96875 65.921875 18.8125 64.3125 
Q 13.671875 62.703125 7.8125 59.421875 
L 7.8125 69.390625 
Q 13.765625 71.78125 18.9375 73 
Q 24.125 74.21875 28.421875 74.21875 
Q 39.75 74.21875 46.484375 68.546875 
Q 53.21875 62.890625 53.21875 53.421875 
Q 53.21875 48.921875 51.53125 44.890625 
Q 49.859375 40.875 45.40625 35.40625 
Q 44.1875 33.984375 37.640625 27.21875 
Q 31.109375 20.453125 19.1875 8.296875 
z
" id="DejaVuSans-50"/>
      </defs>
      <g transform="translate(67.603411 316.6575)scale(0.16 -0.16)">
       <use transform="translate(0 0.765625)" xlink:href="#DejaVuSans-49"/>
       <use transform="translate(63.623047 0.765625)" xlink:href="#DejaVuSans-48"/>
       <use transform="translate(128.203125 39.046875)scale(0.7)" xlink:href="#DejaVuSans-8722"/>
       <use transform="translate(186.855469 39.046875)scale(0.7)" xlink:href="#DejaVuSans-50"/>
      </g>
     </g>
    </g>
    <g id="xtick_2">
     <g id="line2d_2">
      <g>
       <use style="stroke:#000000;stroke-width:0.8;" x="261.259471" xlink:href="#m550503a28f" y="297.5"/>
      </g>
     </g>
     <g id="text_2">
      <!-- $\mathdefault{10^{-1}}$ -->
      <g transform="translate(242.459471 316.6575)scale(0.16 -0.16)">
       <use transform="translate(0 0.684375)" xlink:href="#DejaVuSans-49"/>
       <use transform="translate(63.623047 0.684375)" xlink:href="#DejaVuSans-48"/>
       <use transform="translate(128.203125 38.965625)scale(0.7)" xlink:href="#DejaVuSans-8722"/>
       <use transform="translate(186.855469 38.965625)scale(0.7)" xlink:href="#DejaVuSans-49"/>
      </g>
     </g>
    </g>
    <g id="xtick_3">
     <g id="line2d_3">
      <g>
       <use style="stroke:#000000;stroke-width:0.8;" x="436.115531" xlink:href="#m550503a28f" y="297.5"/>
      </g>
     </g>
     <g id="text_3">
      <!-- $\mathdefault{10^{0}}$ -->
      <g transform="translate(422.035531 316.6575)scale(0.16 -0.16)">
       <use transform="translate(0 0.765625)" xlink:href="#DejaVuSans-49"/>
       <use transform="translate(63.623047 0.765625)" xlink:href="#DejaVuSans-48"/>
       <use transform="translate(128.203125 39.046875)scale(0.7)" xlink:href="#DejaVuSans-48"/>
      </g>
     </g>
    </g>
    <g id="xtick_4">
     <g id="line2d_4">
      <g>
       <use style="stroke:#000000;stroke-width:0.8;" x="610.971591" xlink:href="#m550503a28f" y="297.5"/>
      </g>
     </g>
     <g id="text_4">
      <!-- $\mathdefault{10^{1}}$ -->
      <g transform="translate(596.891591 316.6575)scale(0.16 -0.16)">
       <use transform="translate(0 0.684375)" xlink:href="#DejaVuSans-49"/>
       <use transform="translate(63.623047 0.684375)" xlink:href="#DejaVuSans-48"/>
       <use transform="translate(128.203125 38.965625)scale(0.7)" xlink:href="#DejaVuSans-49"/>
      </g>
     </g>
    </g>
    <g id="xtick_5">
     <g id="line2d_5">
      <defs>
       <path d="M 0 0 
L 0 2 
" id="m55772f4a61" style="stroke:#000000;stroke-width:0.6;"/>
      </defs>
      <g>
       <use style="stroke:#000000;stroke-width:0.6;" x="69.458108" xlink:href="#m55772f4a61" y="297.5"/>
      </g>
     </g>
    </g>
    <g id="xtick_6">
     <g id="line2d_6">
      <g>
       <use style="stroke:#000000;stroke-width:0.6;" x="78.402436" xlink:href="#m55772f4a61" y="297.5"/>
      </g>
     </g>
    </g>
    <g id="xtick_7">
     <g id="line2d_7">
      <g>
       <use style="stroke:#000000;stroke-width:0.6;" x="139.04033" xlink:href="#m55772f4a61" y="297.5"/>
      </g>
     </g>
    </g>
    <g id="xtick_8">
     <g id="line2d_8">
      <g>
       <use style="stroke:#000000;stroke-width:0.6;" x="169.830954" xlink:href="#m55772f4a61" y="297.5"/>
      </g>
     </g>
    </g>
    <g id="xtick_9">
     <g id="line2d_9">
      <g>
       <use style="stroke:#000000;stroke-width:0.6;" x="191.677249" xlink:href="#m55772f4a61" y="297.5"/>
      </g>
     </g>
    </g>
    <g id="xtick_10">
     <g id="line2d_10">
      <g>
       <use style="stroke:#000000;stroke-width:0.6;" x="208.622552" xlink:href="#m55772f4a61" y="297.5"/>
      </g>
     </g>
    </g>
    <g id="xtick_11">
     <g id="line2d_11">
      <g>
       <use style="stroke:#000000;stroke-width:0.6;" x="222.467873" xlink:href="#m55772f4a61" y="297.5"/>
      </g>
     </g>
    </g>
    <g id="xtick_12">
     <g id="line2d_12">
      <g>
       <use style="stroke:#000000;stroke-width:0.6;" x="234.173924" xlink:href="#m55772f4a61" y="297.5"/>
      </g>
     </g>
    </g>
    <g id="xtick_13">
     <g id="line2d_13">
      <g>
       <use style="stroke:#000000;stroke-width:0.6;" x="244.314168" xlink:href="#m55772f4a61" y="297.5"/>
      </g>
     </g>
    </g>
    <g id="xtick_14">
     <g id="line2d_14">
      <g>
       <use style="stroke:#000000;stroke-width:0.6;" x="253.258496" xlink:href="#m55772f4a61" y="297.5"/>
      </g>
     </g>
    </g>
    <g id="xtick_15">
     <g id="line2d_15">
      <g>
       <use style="stroke:#000000;stroke-width:0.6;" x="313.89639" xlink:href="#m55772f4a61" y="297.5"/>
      </g>
     </g>
    </g>
    <g id="xtick_16">
     <g id="line2d_16">
      <g>
       <use style="stroke:#000000;stroke-width:0.6;" x="344.687014" xlink:href="#m55772f4a61" y="297.5"/>
      </g>
     </g>
    </g>
    <g id="xtick_17">
     <g id="line2d_17">
      <g>
       <use style="stroke:#000000;stroke-width:0.6;" x="366.533309" xlink:href="#m55772f4a61" y="297.5"/>
      </g>
     </g>
    </g>
    <g id="xtick_18">
     <g id="line2d_18">
      <g>
       <use style="stroke:#000000;stroke-width:0.6;" x="383.478612" xlink:href="#m55772f4a61" y="297.5"/>
      </g>
     </g>
    </g>
    <g id="xtick_19">
     <g id="line2d_19">
      <g>
       <use style="stroke:#000000;stroke-width:0.6;" x="397.323933" xlink:href="#m55772f4a61" y="297.5"/>
      </g>
     </g>
    </g>
    <g id="xtick_20">
     <g id="line2d_20">
      <g>
       <use style="stroke:#000000;stroke-width:0.6;" x="409.029984" xlink:href="#m55772f4a61" y="297.5"/>
      </g>
     </g>
    </g>
    <g id="xtick_21">
     <g id="line2d_21">
      <g>
       <use style="stroke:#000000;stroke-width:0.6;" x="419.170228" xlink:href="#m55772f4a61" y="297.5"/>
      </g>
     </g>
    </g>
    <g id="xtick_22">
     <g id="line2d_22">
      <g>
       <use style="stroke:#000000;stroke-width:0.6;" x="428.114556" xlink:href="#m55772f4a61" y="297.5"/>
      </g>
     </g>
    </g>
    <g id="xtick_23">
     <g id="line2d_23">
      <g>
       <use style="stroke:#000000;stroke-width:0.6;" x="488.75245" xlink:href="#m55772f4a61" y="297.5"/>
      </g>
     </g>
    </g>
    <g id="xtick_24">
     <g id="line2d_24">
      <g>
       <use style="stroke:#000000;stroke-width:0.6;" x="519.543074" xlink:href="#m55772f4a61" y="297.5"/>
      </g>
     </g>
    </g>
    <g id="xtick_25">
     <g id="line2d_25">
      <g>
       <use style="stroke:#000000;stroke-width:0.6;" x="541.389369" xlink:href="#m55772f4a61" y="297.5"/>
      </g>
     </g>
    </g>
    <g id="xtick_26">
     <g id="line2d_26">
      <g>
       <use style="stroke:#000000;stroke-width:0.6;" x="558.334672" xlink:href="#m55772f4a61" y="297.5"/>
      </g>
     </g>
    </g>
    <g id="xtick_27">
     <g id="line2d_27">
      <g>
       <use style="stroke:#000000;stroke-width:0.6;" x="572.179993" xlink:href="#m55772f4a61" y="297.5"/>
      </g>
     </g>
    </g>
    <g id="xtick_28">
     <g id="line2d_28">
      <g>
       <use style="stroke:#000000;stroke-width:0.6;" x="583.886044" xlink:href="#m55772f4a61" y="297.5"/>
      </g>
     </g>
    </g>
    <g id="xtick_29">
     <g id="line2d_29">
      <g>
       <use style="stroke:#000000;stroke-width:0.6;" x="594.026288" xlink:href="#m55772f4a61" y="297.5"/>
      </g>
     </g>
    </g>
    <g id="xtick_30">
     <g id="line2d_30">
      <g>
       <use style="stroke:#000000;stroke-width:0.6;" x="602.970616" xlink:href="#m55772f4a61" y="297.5"/>
      </g>
     </g>
    </g>
    <g id="text_5">
     <!-- Temperature ($\lambda$) -->
     <defs>
      <path d="M -0.296875 72.90625 
L 61.375 72.90625 
L 61.375 64.59375 
L 35.5 64.59375 
L 35.5 0 
L 25.59375 0 
L 25.59375 64.59375 
L -0.296875 64.59375 
z
" id="DejaVuSans-84"/>
      <path d="M 56.203125 29.59375 
L 56.203125 25.203125 
L 14.890625 25.203125 
Q 15.484375 15.921875 20.484375 11.0625 
Q 25.484375 6.203125 34.421875 6.203125 
Q 39.59375 6.203125 44.453125 7.46875 
Q 49.3125 8.734375 54.109375 11.28125 
L 54.109375 2.78125 
Q 49.265625 0.734375 44.1875 -0.34375 
Q 39.109375 -1.421875 33.890625 -1.421875 
Q 20.796875 -1.421875 13.15625 6.1875 
Q 5.515625 13.8125 5.515625 26.8125 
Q 5.515625 40.234375 12.765625 48.109375 
Q 20.015625 56 32.328125 56 
Q 43.359375 56 49.78125 48.890625 
Q 56.203125 41.796875 56.203125 29.59375 
z
M 47.21875 32.234375 
Q 47.125 39.59375 43.09375 43.984375 
Q 39.0625 48.390625 32.421875 48.390625 
Q 24.90625 48.390625 20.390625 44.140625 
Q 15.875 39.890625 15.1875 32.171875 
z
" id="DejaVuSans-101"/>
      <path d="M 52 44.1875 
Q 55.375 50.25 60.0625 53.125 
Q 64.75 56 71.09375 56 
Q 79.640625 56 84.28125 50.015625 
Q 88.921875 44.046875 88.921875 33.015625 
L 88.921875 0 
L 79.890625 0 
L 79.890625 32.71875 
Q 79.890625 40.578125 77.09375 44.375 
Q 74.3125 48.1875 68.609375 48.1875 
Q 61.625 48.1875 57.5625 43.546875 
Q 53.515625 38.921875 53.515625 30.90625 
L 53.515625 0 
L 44.484375 0 
L 44.484375 32.71875 
Q 44.484375 40.625 41.703125 44.40625 
Q 38.921875 48.1875 33.109375 48.1875 
Q 26.21875 48.1875 22.15625 43.53125 
Q 18.109375 38.875 18.109375 30.90625 
L 18.109375 0 
L 9.078125 0 
L 9.078125 54.6875 
L 18.109375 54.6875 
L 18.109375 46.1875 
Q 21.1875 51.21875 25.484375 53.609375 
Q 29.78125 56 35.6875 56 
Q 41.65625 56 45.828125 52.96875 
Q 50 49.953125 52 44.1875 
z
" id="DejaVuSans-109"/>
      <path d="M 18.109375 8.203125 
L 18.109375 -20.796875 
L 9.078125 -20.796875 
L 9.078125 54.6875 
L 18.109375 54.6875 
L 18.109375 46.390625 
Q 20.953125 51.265625 25.265625 53.625 
Q 29.59375 56 35.59375 56 
Q 45.5625 56 51.78125 48.09375 
Q 58.015625 40.1875 58.015625 27.296875 
Q 58.015625 14.40625 51.78125 6.484375 
Q 45.5625 -1.421875 35.59375 -1.421875 
Q 29.59375 -1.421875 25.265625 0.953125 
Q 20.953125 3.328125 18.109375 8.203125 
z
M 48.6875 27.296875 
Q 48.6875 37.203125 44.609375 42.84375 
Q 40.53125 48.484375 33.40625 48.484375 
Q 26.265625 48.484375 22.1875 42.84375 
Q 18.109375 37.203125 18.109375 27.296875 
Q 18.109375 17.390625 22.1875 11.75 
Q 26.265625 6.109375 33.40625 6.109375 
Q 40.53125 6.109375 44.609375 11.75 
Q 48.6875 17.390625 48.6875 27.296875 
z
" id="DejaVuSans-112"/>
      <path d="M 41.109375 46.296875 
Q 39.59375 47.171875 37.8125 47.578125 
Q 36.03125 48 33.890625 48 
Q 26.265625 48 22.1875 43.046875 
Q 18.109375 38.09375 18.109375 28.8125 
L 18.109375 0 
L 9.078125 0 
L 9.078125 54.6875 
L 18.109375 54.6875 
L 18.109375 46.1875 
Q 20.953125 51.171875 25.484375 53.578125 
Q 30.03125 56 36.53125 56 
Q 37.453125 56 38.578125 55.875 
Q 39.703125 55.765625 41.0625 55.515625 
z
" id="DejaVuSans-114"/>
      <path d="M 34.28125 27.484375 
Q 23.390625 27.484375 19.1875 25 
Q 14.984375 22.515625 14.984375 16.5 
Q 14.984375 11.71875 18.140625 8.90625 
Q 21.296875 6.109375 26.703125 6.109375 
Q 34.1875 6.109375 38.703125 11.40625 
Q 43.21875 16.703125 43.21875 25.484375 
L 43.21875 27.484375 
z
M 52.203125 31.203125 
L 52.203125 0 
L 43.21875 0 
L 43.21875 8.296875 
Q 40.140625 3.328125 35.546875 0.953125 
Q 30.953125 -1.421875 24.3125 -1.421875 
Q 15.921875 -1.421875 10.953125 3.296875 
Q 6 8.015625 6 15.921875 
Q 6 25.140625 12.171875 29.828125 
Q 18.359375 34.515625 30.609375 34.515625 
L 43.21875 34.515625 
L 43.21875 35.40625 
Q 43.21875 41.609375 39.140625 45 
Q 35.0625 48.390625 27.6875 48.390625 
Q 23 48.390625 18.546875 47.265625 
Q 14.109375 46.140625 10.015625 43.890625 
L 10.015625 52.203125 
Q 14.9375 54.109375 19.578125 55.046875 
Q 24.21875 56 28.609375 56 
Q 40.484375 56 46.34375 49.84375 
Q 52.203125 43.703125 52.203125 31.203125 
z
" id="DejaVuSans-97"/>
      <path d="M 18.3125 70.21875 
L 18.3125 54.6875 
L 36.8125 54.6875 
L 36.8125 47.703125 
L 18.3125 47.703125 
L 18.3125 18.015625 
Q 18.3125 11.328125 20.140625 9.421875 
Q 21.96875 7.515625 27.59375 7.515625 
L 36.8125 7.515625 
L 36.8125 0 
L 27.59375 0 
Q 17.1875 0 13.234375 3.875 
Q 9.28125 7.765625 9.28125 18.015625 
L 9.28125 47.703125 
L 2.6875 47.703125 
L 2.6875 54.6875 
L 9.28125 54.6875 
L 9.28125 70.21875 
z
" id="DejaVuSans-116"/>
      <path d="M 8.5 21.578125 
L 8.5 54.6875 
L 17.484375 54.6875 
L 17.484375 21.921875 
Q 17.484375 14.15625 20.5 10.265625 
Q 23.53125 6.390625 29.59375 6.390625 
Q 36.859375 6.390625 41.078125 11.03125 
Q 45.3125 15.671875 45.3125 23.6875 
L 45.3125 54.6875 
L 54.296875 54.6875 
L 54.296875 0 
L 45.3125 0 
L 45.3125 8.40625 
Q 42.046875 3.421875 37.71875 1 
Q 33.40625 -1.421875 27.6875 -1.421875 
Q 18.265625 -1.421875 13.375 4.4375 
Q 8.5 10.296875 8.5 21.578125 
z
M 31.109375 56 
z
" id="DejaVuSans-117"/>
      <path id="DejaVuSans-32"/>
      <path d="M 31 75.875 
Q 24.46875 64.65625 21.28125 53.65625 
Q 18.109375 42.671875 18.109375 31.390625 
Q 18.109375 20.125 21.3125 9.0625 
Q 24.515625 -2 31 -13.1875 
L 23.1875 -13.1875 
Q 15.875 -1.703125 12.234375 9.375 
Q 8.59375 20.453125 8.59375 31.390625 
Q 8.59375 42.28125 12.203125 53.3125 
Q 15.828125 64.359375 23.1875 75.875 
z
" id="DejaVuSans-40"/>
      <path d="M 36.71875 67.4375 
L 48.828125 0 
L 39.3125 0 
L 31.84375 40.4375 
L 5.125 0 
L -4.390625 0 
L 29.734375 52.4375 
L 28.03125 62.109375 
Q 26.953125 68.265625 21.734375 68.265625 
L 17.046875 68.265625 
L 18.5 75.984375 
L 24.21875 75.875 
Q 35.203125 75.734375 36.71875 67.4375 
z
" id="DejaVuSans-Oblique-955"/>
      <path d="M 8.015625 75.875 
L 15.828125 75.875 
Q 23.140625 64.359375 26.78125 53.3125 
Q 30.421875 42.28125 30.421875 31.390625 
Q 30.421875 20.453125 26.78125 9.375 
Q 23.140625 -1.703125 15.828125 -13.1875 
L 8.015625 -13.1875 
Q 14.5 -2 17.703125 9.0625 
Q 20.90625 20.125 20.90625 31.390625 
Q 20.90625 42.671875 17.703125 53.65625 
Q 14.5 64.65625 8.015625 75.875 
z
" id="DejaVuSans-41"/>
     </defs>
     <g transform="translate(274.7075 337.665)scale(0.18 -0.18)">
      <use transform="translate(0 0.015625)" xlink:href="#DejaVuSans-84"/>
      <use transform="translate(61.083984 0.015625)" xlink:href="#DejaVuSans-101"/>
      <use transform="translate(122.607422 0.015625)" xlink:href="#DejaVuSans-109"/>
      <use transform="translate(220.019531 0.015625)" xlink:href="#DejaVuSans-112"/>
      <use transform="translate(283.496094 0.015625)" xlink:href="#DejaVuSans-101"/>
      <use transform="translate(345.019531 0.015625)" xlink:href="#DejaVuSans-114"/>
      <use transform="translate(386.132812 0.015625)" xlink:href="#DejaVuSans-97"/>
      <use transform="translate(447.412109 0.015625)" xlink:href="#DejaVuSans-116"/>
      <use transform="translate(486.621094 0.015625)" xlink:href="#DejaVuSans-117"/>
      <use transform="translate(550 0.015625)" xlink:href="#DejaVuSans-114"/>
      <use transform="translate(591.113281 0.015625)" xlink:href="#DejaVuSans-101"/>
      <use transform="translate(652.636719 0.015625)" xlink:href="#DejaVuSans-32"/>
      <use transform="translate(684.423828 0.015625)" xlink:href="#DejaVuSans-40"/>
      <use transform="translate(723.4375 0.015625)" xlink:href="#DejaVuSans-Oblique-955"/>
      <use transform="translate(782.617188 0.015625)" xlink:href="#DejaVuSans-41"/>
     </g>
    </g>
   </g>
   <g id="matplotlib.axis_2">
    <g id="ytick_1">
     <g id="line2d_31">
      <defs>
       <path d="M 0 0 
L -3.5 0 
" id="m19859554d1" style="stroke:#000000;stroke-width:0.8;"/>
      </defs>
      <g>
       <use style="stroke:#000000;stroke-width:0.8;" x="60.175" xlink:href="#m19859554d1" y="285.503578"/>
      </g>
     </g>
     <g id="text_6">
      <!-- 0 -->
      <g transform="translate(42.995 291.582328)scale(0.16 -0.16)">
       <use xlink:href="#DejaVuSans-48"/>
      </g>
     </g>
    </g>
    <g id="ytick_2">
     <g id="line2d_32">
      <g>
       <use style="stroke:#000000;stroke-width:0.8;" x="60.175" xlink:href="#m19859554d1" y="249.135196"/>
      </g>
     </g>
     <g id="text_7">
      <!-- 2 -->
      <g transform="translate(42.995 255.213946)scale(0.16 -0.16)">
       <use xlink:href="#DejaVuSans-50"/>
      </g>
     </g>
    </g>
    <g id="ytick_3">
     <g id="line2d_33">
      <g>
       <use style="stroke:#000000;stroke-width:0.8;" x="60.175" xlink:href="#m19859554d1" y="212.766813"/>
      </g>
     </g>
     <g id="text_8">
      <!-- 4 -->
      <defs>
       <path d="M 37.796875 64.3125 
L 12.890625 25.390625 
L 37.796875 25.390625 
z
M 35.203125 72.90625 
L 47.609375 72.90625 
L 47.609375 25.390625 
L 58.015625 25.390625 
L 58.015625 17.1875 
L 47.609375 17.1875 
L 47.609375 0 
L 37.796875 0 
L 37.796875 17.1875 
L 4.890625 17.1875 
L 4.890625 26.703125 
z
" id="DejaVuSans-52"/>
      </defs>
      <g transform="translate(42.995 218.845563)scale(0.16 -0.16)">
       <use xlink:href="#DejaVuSans-52"/>
      </g>
     </g>
    </g>
    <g id="ytick_4">
     <g id="line2d_34">
      <g>
       <use style="stroke:#000000;stroke-width:0.8;" x="60.175" xlink:href="#m19859554d1" y="176.39843"/>
      </g>
     </g>
     <g id="text_9">
      <!-- 6 -->
      <defs>
       <path d="M 33.015625 40.375 
Q 26.375 40.375 22.484375 35.828125 
Q 18.609375 31.296875 18.609375 23.390625 
Q 18.609375 15.53125 22.484375 10.953125 
Q 26.375 6.390625 33.015625 6.390625 
Q 39.65625 6.390625 43.53125 10.953125 
Q 47.40625 15.53125 47.40625 23.390625 
Q 47.40625 31.296875 43.53125 35.828125 
Q 39.65625 40.375 33.015625 40.375 
z
M 52.59375 71.296875 
L 52.59375 62.3125 
Q 48.875 64.0625 45.09375 64.984375 
Q 41.3125 65.921875 37.59375 65.921875 
Q 27.828125 65.921875 22.671875 59.328125 
Q 17.53125 52.734375 16.796875 39.40625 
Q 19.671875 43.65625 24.015625 45.921875 
Q 28.375 48.1875 33.59375 48.1875 
Q 44.578125 48.1875 50.953125 41.515625 
Q 57.328125 34.859375 57.328125 23.390625 
Q 57.328125 12.15625 50.6875 5.359375 
Q 44.046875 -1.421875 33.015625 -1.421875 
Q 20.359375 -1.421875 13.671875 8.265625 
Q 6.984375 17.96875 6.984375 36.375 
Q 6.984375 53.65625 15.1875 63.9375 
Q 23.390625 74.21875 37.203125 74.21875 
Q 40.921875 74.21875 44.703125 73.484375 
Q 48.484375 72.75 52.59375 71.296875 
z
" id="DejaVuSans-54"/>
      </defs>
      <g transform="translate(42.995 182.47718)scale(0.16 -0.16)">
       <use xlink:href="#DejaVuSans-54"/>
      </g>
     </g>
    </g>
    <g id="ytick_5">
     <g id="line2d_35">
      <g>
       <use style="stroke:#000000;stroke-width:0.8;" x="60.175" xlink:href="#m19859554d1" y="140.030047"/>
      </g>
     </g>
     <g id="text_10">
      <!-- 8 -->
      <defs>
       <path d="M 31.78125 34.625 
Q 24.75 34.625 20.71875 30.859375 
Q 16.703125 27.09375 16.703125 20.515625 
Q 16.703125 13.921875 20.71875 10.15625 
Q 24.75 6.390625 31.78125 6.390625 
Q 38.8125 6.390625 42.859375 10.171875 
Q 46.921875 13.96875 46.921875 20.515625 
Q 46.921875 27.09375 42.890625 30.859375 
Q 38.875 34.625 31.78125 34.625 
z
M 21.921875 38.8125 
Q 15.578125 40.375 12.03125 44.71875 
Q 8.5 49.078125 8.5 55.328125 
Q 8.5 64.0625 14.71875 69.140625 
Q 20.953125 74.21875 31.78125 74.21875 
Q 42.671875 74.21875 48.875 69.140625 
Q 55.078125 64.0625 55.078125 55.328125 
Q 55.078125 49.078125 51.53125 44.71875 
Q 48 40.375 41.703125 38.8125 
Q 48.828125 37.15625 52.796875 32.3125 
Q 56.78125 27.484375 56.78125 20.515625 
Q 56.78125 9.90625 50.3125 4.234375 
Q 43.84375 -1.421875 31.78125 -1.421875 
Q 19.734375 -1.421875 13.25 4.234375 
Q 6.78125 9.90625 6.78125 20.515625 
Q 6.78125 27.484375 10.78125 32.3125 
Q 14.796875 37.15625 21.921875 38.8125 
z
M 18.3125 54.390625 
Q 18.3125 48.734375 21.84375 45.5625 
Q 25.390625 42.390625 31.78125 42.390625 
Q 38.140625 42.390625 41.71875 45.5625 
Q 45.3125 48.734375 45.3125 54.390625 
Q 45.3125 60.0625 41.71875 63.234375 
Q 38.140625 66.40625 31.78125 66.40625 
Q 25.390625 66.40625 21.84375 63.234375 
Q 18.3125 60.0625 18.3125 54.390625 
z
" id="DejaVuSans-56"/>
      </defs>
      <g transform="translate(42.995 146.108797)scale(0.16 -0.16)">
       <use xlink:href="#DejaVuSans-56"/>
      </g>
     </g>
    </g>
    <g id="ytick_6">
     <g id="line2d_36">
      <g>
       <use style="stroke:#000000;stroke-width:0.8;" x="60.175" xlink:href="#m19859554d1" y="103.661664"/>
      </g>
     </g>
     <g id="text_11">
      <!-- 10 -->
      <g transform="translate(32.815 109.740414)scale(0.16 -0.16)">
       <use xlink:href="#DejaVuSans-49"/>
       <use x="63.623047" xlink:href="#DejaVuSans-48"/>
      </g>
     </g>
    </g>
    <g id="ytick_7">
     <g id="line2d_37">
      <g>
       <use style="stroke:#000000;stroke-width:0.8;" x="60.175" xlink:href="#m19859554d1" y="67.293281"/>
      </g>
     </g>
     <g id="text_12">
      <!-- 12 -->
      <g transform="translate(32.815 73.372031)scale(0.16 -0.16)">
       <use xlink:href="#DejaVuSans-49"/>
       <use x="63.623047" xlink:href="#DejaVuSans-50"/>
      </g>
     </g>
    </g>
    <g id="text_13">
     <!-- Mean sample entropy -->
     <defs>
      <path d="M 9.8125 72.90625 
L 24.515625 72.90625 
L 43.109375 23.296875 
L 61.8125 72.90625 
L 76.515625 72.90625 
L 76.515625 0 
L 66.890625 0 
L 66.890625 64.015625 
L 48.09375 14.015625 
L 38.1875 14.015625 
L 19.390625 64.015625 
L 19.390625 0 
L 9.8125 0 
z
" id="DejaVuSans-77"/>
      <path d="M 54.890625 33.015625 
L 54.890625 0 
L 45.90625 0 
L 45.90625 32.71875 
Q 45.90625 40.484375 42.875 44.328125 
Q 39.84375 48.1875 33.796875 48.1875 
Q 26.515625 48.1875 22.3125 43.546875 
Q 18.109375 38.921875 18.109375 30.90625 
L 18.109375 0 
L 9.078125 0 
L 9.078125 54.6875 
L 18.109375 54.6875 
L 18.109375 46.1875 
Q 21.34375 51.125 25.703125 53.5625 
Q 30.078125 56 35.796875 56 
Q 45.21875 56 50.046875 50.171875 
Q 54.890625 44.34375 54.890625 33.015625 
z
" id="DejaVuSans-110"/>
      <path d="M 44.28125 53.078125 
L 44.28125 44.578125 
Q 40.484375 46.53125 36.375 47.5 
Q 32.28125 48.484375 27.875 48.484375 
Q 21.1875 48.484375 17.84375 46.4375 
Q 14.5 44.390625 14.5 40.28125 
Q 14.5 37.15625 16.890625 35.375 
Q 19.28125 33.59375 26.515625 31.984375 
L 29.59375 31.296875 
Q 39.15625 29.25 43.1875 25.515625 
Q 47.21875 21.78125 47.21875 15.09375 
Q 47.21875 7.46875 41.1875 3.015625 
Q 35.15625 -1.421875 24.609375 -1.421875 
Q 20.21875 -1.421875 15.453125 -0.5625 
Q 10.6875 0.296875 5.421875 2 
L 5.421875 11.28125 
Q 10.40625 8.6875 15.234375 7.390625 
Q 20.0625 6.109375 24.8125 6.109375 
Q 31.15625 6.109375 34.5625 8.28125 
Q 37.984375 10.453125 37.984375 14.40625 
Q 37.984375 18.0625 35.515625 20.015625 
Q 33.0625 21.96875 24.703125 23.78125 
L 21.578125 24.515625 
Q 13.234375 26.265625 9.515625 29.90625 
Q 5.8125 33.546875 5.8125 39.890625 
Q 5.8125 47.609375 11.28125 51.796875 
Q 16.75 56 26.8125 56 
Q 31.78125 56 36.171875 55.265625 
Q 40.578125 54.546875 44.28125 53.078125 
z
" id="DejaVuSans-115"/>
      <path d="M 9.421875 75.984375 
L 18.40625 75.984375 
L 18.40625 0 
L 9.421875 0 
z
" id="DejaVuSans-108"/>
      <path d="M 30.609375 48.390625 
Q 23.390625 48.390625 19.1875 42.75 
Q 14.984375 37.109375 14.984375 27.296875 
Q 14.984375 17.484375 19.15625 11.84375 
Q 23.34375 6.203125 30.609375 6.203125 
Q 37.796875 6.203125 41.984375 11.859375 
Q 46.1875 17.53125 46.1875 27.296875 
Q 46.1875 37.015625 41.984375 42.703125 
Q 37.796875 48.390625 30.609375 48.390625 
z
M 30.609375 56 
Q 42.328125 56 49.015625 48.375 
Q 55.71875 40.765625 55.71875 27.296875 
Q 55.71875 13.875 49.015625 6.21875 
Q 42.328125 -1.421875 30.609375 -1.421875 
Q 18.84375 -1.421875 12.171875 6.21875 
Q 5.515625 13.875 5.515625 27.296875 
Q 5.515625 40.765625 12.171875 48.375 
Q 18.84375 56 30.609375 56 
z
" id="DejaVuSans-111"/>
      <path d="M 32.171875 -5.078125 
Q 28.375 -14.84375 24.75 -17.8125 
Q 21.140625 -20.796875 15.09375 -20.796875 
L 7.90625 -20.796875 
L 7.90625 -13.28125 
L 13.1875 -13.28125 
Q 16.890625 -13.28125 18.9375 -11.515625 
Q 21 -9.765625 23.484375 -3.21875 
L 25.09375 0.875 
L 2.984375 54.6875 
L 12.5 54.6875 
L 29.59375 11.921875 
L 46.6875 54.6875 
L 56.203125 54.6875 
z
" id="DejaVuSans-121"/>
     </defs>
     <g transform="translate(25.071563 262.429375)rotate(-90)scale(0.18 -0.18)">
      <use xlink:href="#DejaVuSans-77"/>
      <use x="86.279297" xlink:href="#DejaVuSans-101"/>
      <use x="147.802734" xlink:href="#DejaVuSans-97"/>
      <use x="209.082031" xlink:href="#DejaVuSans-110"/>
      <use x="272.460938" xlink:href="#DejaVuSans-32"/>
      <use x="304.248047" xlink:href="#DejaVuSans-115"/>
      <use x="356.347656" xlink:href="#DejaVuSans-97"/>
      <use x="417.626953" xlink:href="#DejaVuSans-109"/>
      <use x="515.039062" xlink:href="#DejaVuSans-112"/>
      <use x="578.515625" xlink:href="#DejaVuSans-108"/>
      <use x="606.298828" xlink:href="#DejaVuSans-101"/>
      <use x="667.822266" xlink:href="#DejaVuSans-32"/>
      <use x="699.609375" xlink:href="#DejaVuSans-101"/>
      <use x="761.132812" xlink:href="#DejaVuSans-110"/>
      <use x="824.511719" xlink:href="#DejaVuSans-116"/>
      <use x="863.720703" xlink:href="#DejaVuSans-114"/>
      <use x="902.583984" xlink:href="#DejaVuSans-111"/>
      <use x="963.765625" xlink:href="#DejaVuSans-112"/>
      <use x="1027.242188" xlink:href="#DejaVuSans-121"/>
     </g>
    </g>
   </g>
   <g id="line2d_38">
    <path clip-path="url(#pbc65cc3c0e)" d="M 610.971591 225.306492 
L 605.672923 225.339299 
L 600.374251 225.376501 
L 595.075583 225.420606 
L 589.776918 225.47179 
L 584.47825 225.530895 
L 579.179581 225.599135 
L 573.88091 225.678296 
L 568.582244 225.769371 
L 563.283571 225.878542 
L 557.984907 226.000129 
L 552.686235 226.145111 
L 547.387566 226.310426 
L 542.088902 226.505591 
L 536.790231 226.729833 
L 531.491566 226.993021 
L 526.192897 227.29531 
L 520.894224 227.642098 
L 515.595557 228.042989 
L 510.296892 228.491742 
L 504.998219 229.024443 
L 499.699551 229.615391 
L 494.400884 230.298614 
L 489.102216 231.067818 
L 483.803548 231.915264 
L 478.50488 232.875744 
L 473.206211 233.936416 
L 467.90754 235.086121 
L 462.608873 236.358163 
L 457.310204 237.729795 
L 452.011536 239.221172 
L 446.71287 240.801092 
L 441.414196 242.445931 
L 436.115531 244.164183 
L 430.816863 245.940681 
L 425.518195 247.805656 
L 420.219525 249.659341 
L 414.920859 251.565869 
L 409.622187 253.422931 
L 404.323521 255.314875 
L 399.02485 257.131272 
L 393.726184 258.904467 
L 388.427518 260.636633 
L 383.128847 262.324308 
L 377.830179 263.869432 
L 372.531511 265.409572 
L 367.23284 266.811546 
L 361.934171 268.177728 
L 356.635501 269.416659 
L 351.336837 270.608693 
L 346.038169 271.697442 
L 340.739501 272.739041 
L 335.440832 273.658359 
L 330.142161 274.539909 
L 324.843493 275.346607 
L 319.544822 276.114869 
L 314.246153 276.781592 
L 308.947488 277.446309 
L 303.648821 278.030772 
L 298.350152 278.568952 
L 293.051485 279.070875 
L 287.752813 279.542251 
L 282.454146 279.960397 
L 277.155477 280.364122 
L 271.856807 280.740132 
L 266.558139 281.08174 
L 261.259472 281.389688 
L 255.960801 281.684934 
L 250.662137 281.944018 
L 245.363467 282.204546 
L 240.064798 282.435059 
L 234.766125 282.650574 
L 229.467458 282.842001 
L 224.168793 283.030491 
L 218.870124 283.203303 
L 213.571455 283.369509 
L 208.272787 283.522891 
L 202.974117 283.647756 
L 197.675448 283.782424 
L 192.376783 283.890782 
L 187.078115 284.009265 
L 181.779447 284.108243 
L 176.480775 284.207018 
L 171.182107 284.295133 
L 165.883437 284.374201 
L 160.584771 284.461794 
L 155.286099 284.52398 
L 149.98743 284.593128 
L 144.688763 284.661742 
L 139.390099 284.714811 
L 134.09143 284.767036 
L 128.792761 284.81577 
L 123.494089 284.864817 
L 118.195422 284.913067 
L 112.896754 284.950818 
L 107.598085 284.986101 
L 102.299416 285.018427 
L 97.000749 285.052418 
L 91.702082 285.08027 
L 86.403409 285.110319 
" style="fill:none;stroke:#1f77b4;stroke-linecap:square;stroke-width:1.5;"/>
   </g>
   <g id="line2d_39">
    <path clip-path="url(#pbc65cc3c0e)" d="M 60.175 225.097002 
L 637.2 225.097002 
" style="fill:none;stroke:#1f77b4;stroke-dasharray:1.5,2.475;stroke-dashoffset:0;stroke-width:1.5;"/>
   </g>
   <g id="line2d_40">
    <path clip-path="url(#pbc65cc3c0e)" d="M 610.971591 164.926493 
L 605.672923 164.964056 
L 600.374251 165.007497 
L 595.075583 165.058222 
L 589.776918 165.117357 
L 584.47825 165.186655 
L 579.179581 165.267381 
L 573.88091 165.361946 
L 568.582244 165.472526 
L 563.283571 165.602295 
L 557.984907 165.755691 
L 552.686235 165.935691 
L 547.387566 166.148509 
L 542.088902 166.400121 
L 536.790231 166.699406 
L 531.491566 167.052892 
L 526.192897 167.473934 
L 520.894224 167.976898 
L 515.595557 168.579916 
L 510.296892 169.302826 
L 504.998219 170.159779 
L 499.699551 171.194408 
L 494.400884 172.419086 
L 489.102216 173.876612 
L 483.803548 175.621925 
L 478.50488 177.664598 
L 473.206211 180.062205 
L 467.90754 182.847766 
L 462.608873 185.987429 
L 457.310204 189.57516 
L 452.011536 193.527035 
L 446.71287 197.857437 
L 441.414196 202.544361 
L 436.115531 207.446818 
L 430.816863 212.493983 
L 425.518195 217.683515 
L 420.219525 222.850699 
L 414.920859 227.889046 
L 409.622187 232.779796 
L 404.323521 237.413979 
L 399.02485 241.761303 
L 393.726184 245.779354 
L 388.427518 249.507173 
L 383.128847 252.875628 
L 377.830179 255.931831 
L 372.531511 258.667463 
L 367.23284 261.15631 
L 361.934171 263.34199 
L 356.635501 265.325568 
L 351.336837 267.101754 
L 346.038169 268.653814 
L 340.739501 270.097511 
L 335.440832 271.416823 
L 330.142161 272.587851 
L 324.843493 273.632172 
L 319.544822 274.563555 
L 314.246153 275.445717 
L 308.947488 276.244136 
L 303.648821 276.925039 
L 298.350152 277.605627 
L 293.051485 278.208302 
L 287.752813 278.737197 
L 282.454146 279.250501 
L 277.155477 279.722089 
L 271.856807 280.139177 
L 266.558139 280.537374 
L 261.259472 280.910037 
L 255.960801 281.230641 
L 250.662137 281.542144 
L 245.363467 281.812774 
L 240.064798 282.086634 
L 234.766125 282.320578 
L 229.467458 282.555635 
L 224.168793 282.772289 
L 218.870124 282.948647 
L 213.571455 283.132121 
L 208.272787 283.29773 
L 202.974117 283.449807 
L 197.675448 283.597599 
L 192.376783 283.720386 
L 187.078115 283.847803 
L 181.779447 283.965423 
L 176.480775 284.076986 
L 171.182107 284.171158 
L 165.883437 284.262458 
L 160.584771 284.347217 
L 155.286099 284.425766 
L 149.98743 284.497732 
L 144.688763 284.56716 
L 139.390099 284.633397 
L 134.09143 284.693656 
L 128.792761 284.748752 
L 123.494089 284.797499 
L 118.195422 284.842756 
L 112.896754 284.891688 
L 107.598085 284.933551 
L 102.299416 284.974862 
L 97.000749 285.012844 
L 91.702082 285.042203 
L 86.403409 285.071704 
" style="fill:none;stroke:#ff7f0e;stroke-linecap:square;stroke-width:1.5;"/>
   </g>
   <g id="line2d_41">
    <path clip-path="url(#pbc65cc3c0e)" d="M 60.175 164.690426 
L 637.2 164.690426 
" style="fill:none;stroke:#ff7f0e;stroke-dasharray:1.5,2.475;stroke-dashoffset:0;stroke-width:1.5;"/>
   </g>
   <g id="line2d_42">
    <path clip-path="url(#pbc65cc3c0e)" d="M 610.971591 104.522702 
L 605.672923 104.56068 
L 600.374251 104.604798 
L 595.075583 104.656337 
L 589.776918 104.71634 
L 584.47825 104.786574 
L 579.179581 104.868584 
L 573.88091 104.964692 
L 568.582244 105.077708 
L 563.283571 105.210564 
L 557.984907 105.366935 
L 552.686235 105.551781 
L 547.387566 105.770513 
L 542.088902 106.029686 
L 536.790231 106.339307 
L 531.491566 106.710282 
L 526.192897 107.15314 
L 520.894224 107.686886 
L 515.595557 108.334463 
L 510.296892 109.124503 
L 504.998219 110.085742 
L 499.699551 111.27225 
L 494.400884 112.743008 
L 489.102216 114.55833 
L 483.803548 116.823914 
L 478.50488 119.634516 
L 473.206211 123.118483 
L 467.90754 127.409693 
L 462.608873 132.585613 
L 457.310204 138.782738 
L 452.011536 145.98796 
L 446.71287 154.17112 
L 441.414196 163.219636 
L 436.115531 172.930261 
L 430.816863 182.957695 
L 425.518195 193.009295 
L 420.219525 202.804246 
L 414.920859 212.051871 
L 409.622187 220.477318 
L 404.323521 228.139595 
L 399.02485 234.795091 
L 393.726184 240.682158 
L 388.427518 245.795062 
L 383.128847 250.135416 
L 377.830179 253.926348 
L 372.531511 257.208639 
L 367.23284 260.06367 
L 361.934171 262.485708 
L 356.635501 264.678283 
L 351.336837 266.607782 
L 346.038169 268.252014 
L 340.739501 269.783379 
L 335.440832 271.112936 
L 330.142161 272.321436 
L 324.843493 273.430793 
L 319.544822 274.396111 
L 314.246153 275.291085 
L 308.947488 276.086189 
L 303.648821 276.818751 
L 298.350152 277.493172 
L 293.051485 278.108526 
L 287.752813 278.65896 
L 282.454146 279.185357 
L 277.155477 279.66844 
L 271.856807 280.070544 
L 266.558139 280.484846 
L 261.259472 280.849833 
L 255.960801 281.187717 
L 250.662137 281.487878 
L 245.363467 281.79193 
L 240.064798 282.046191 
L 234.766125 282.296985 
L 229.467458 282.528372 
L 224.168793 282.72857 
L 218.870124 282.938759 
L 213.571455 283.113594 
L 208.272787 283.268164 
L 202.974117 283.430253 
L 197.675448 283.576071 
L 192.376783 283.707202 
L 187.078115 283.828414 
L 181.779447 283.956339 
L 176.480775 284.053402 
L 171.182107 284.1635 
L 165.883437 284.252493 
L 160.584771 284.34199 
L 155.286099 284.414693 
L 149.98743 284.485223 
L 144.688763 284.562144 
L 139.390099 284.628207 
L 134.09143 284.683297 
L 128.792761 284.741458 
L 123.494089 284.793494 
L 118.195422 284.838586 
L 112.896754 284.882944 
L 107.598085 284.930265 
L 102.299416 284.965527 
L 97.000749 285.001251 
L 91.702082 285.031124 
L 86.403409 285.068468 
" style="fill:none;stroke:#2ca02c;stroke-linecap:square;stroke-width:1.5;"/>
   </g>
   <g id="line2d_43">
    <path clip-path="url(#pbc65cc3c0e)" d="M 60.175 104.283849 
L 637.2 104.283849 
" style="fill:none;stroke:#2ca02c;stroke-dasharray:1.5,2.475;stroke-dashoffset:0;stroke-width:1.5;"/>
   </g>
   <g id="line2d_44">
    <path clip-path="url(#pbc65cc3c0e)" d="M 610.971591 44.119317 
L 605.672923 44.150654 
L 600.374251 44.201968 
L 595.075583 44.251635 
L 589.776918 44.309522 
L 584.47825 44.379756 
L 579.179581 44.463535 
L 573.88091 44.559747 
L 568.582244 44.672313 
L 563.283571 44.805359 
L 557.984907 44.96225 
L 552.686235 45.147426 
L 547.387566 45.366817 
L 542.088902 45.627395 
L 536.790231 45.937778 
L 531.491566 46.309361 
L 526.192897 46.755374 
L 520.894224 47.294427 
L 515.595557 47.947328 
L 510.296892 48.745658 
L 504.998219 49.727273 
L 499.699551 50.941788 
L 494.400884 52.464918 
L 489.102216 54.385973 
L 483.803548 56.839404 
L 478.50488 60.006172 
L 473.206211 64.105946 
L 467.90754 69.43501 
L 462.608873 76.273227 
L 457.310204 84.974595 
L 452.011536 95.76388 
L 446.71287 108.676149 
L 441.414196 123.471111 
L 436.115531 139.571998 
L 430.816863 156.262567 
L 425.518195 172.612378 
L 420.219525 187.986253 
L 414.920859 201.747974 
L 409.622187 213.651921 
L 404.323521 223.704882 
L 399.02485 232.087954 
L 393.726184 239.045158 
L 388.427518 244.799842 
L 383.128847 249.493217 
L 377.830179 253.537441 
L 372.531511 256.960705 
L 367.23284 259.86298 
L 361.934171 262.396452 
L 356.635501 264.632391 
L 351.336837 266.539973 
L 346.038169 268.246726 
L 340.739501 269.763748 
L 335.440832 271.100103 
L 330.142161 272.30433 
L 324.843493 273.399967 
L 319.544822 274.39059 
L 314.246153 275.272212 
L 308.947488 276.074611 
L 303.648821 276.811871 
L 298.350152 277.485989 
L 293.051485 278.117846 
L 287.752813 278.656335 
L 282.454146 279.157432 
L 277.155477 279.656712 
L 271.856807 280.063228 
L 266.558139 280.489492 
L 261.259472 280.843344 
L 255.960801 281.171511 
L 250.662137 281.479444 
L 245.363467 281.78985 
L 240.064798 282.045683 
L 234.766125 282.283736 
L 229.467458 282.517146 
L 224.168793 282.731996 
L 218.870124 282.924134 
L 213.571455 283.099908 
L 208.272787 283.273729 
L 202.974117 283.429599 
L 197.675448 283.579579 
L 192.376783 283.70472 
L 187.078115 283.830251 
L 181.779447 283.941812 
L 176.480775 284.051977 
L 171.182107 284.148426 
L 165.883437 284.253218 
L 160.584771 284.335013 
L 155.286099 284.414583 
L 149.98743 284.487607 
L 144.688763 284.557301 
L 139.390099 284.620136 
L 134.09143 284.67914 
L 128.792761 284.73613 
L 123.494089 284.792226 
L 118.195422 284.839228 
L 112.896754 284.884011 
L 107.598085 284.925717 
L 102.299416 284.963981 
L 97.000749 285.001593 
L 91.702082 285.03512 
L 86.403409 285.068963 
" style="fill:none;stroke:#d62728;stroke-linecap:square;stroke-width:1.5;"/>
   </g>
   <g id="line2d_45">
    <path clip-path="url(#pbc65cc3c0e)" d="M 60.175 43.877273 
L 637.2 43.877273 
" style="fill:none;stroke:#d62728;stroke-dasharray:1.5,2.475;stroke-dashoffset:0;stroke-width:1.5;"/>
   </g>
   <g id="line2d_46">
    <path clip-path="url(#pbc65cc3c0e)" d="M 610.971591 225.591158 
L 605.672923 225.670709 
L 600.374251 225.764259 
L 595.075583 225.872654 
L 589.776918 226.000381 
L 584.47825 226.149273 
L 579.179581 226.323883 
L 573.88091 226.52928 
L 568.582244 226.764703 
L 563.283571 227.047179 
L 557.984907 227.371831 
L 552.686235 227.751542 
L 547.387566 228.196654 
L 542.088902 228.713605 
L 536.790231 229.317268 
L 531.491566 230.022984 
L 526.192897 230.823897 
L 520.894224 231.759175 
L 515.595557 232.815932 
L 510.296892 234.03947 
L 504.998219 235.396513 
L 499.699551 236.948651 
L 494.400884 238.638302 
L 489.102216 240.502757 
L 483.803548 242.538727 
L 478.50488 244.736674 
L 473.206211 247.048184 
L 467.90754 249.452516 
L 462.608873 251.950135 
L 457.310204 254.481684 
L 452.011536 257.074467 
L 446.71287 259.572531 
L 441.414196 262.056269 
L 436.115531 264.391468 
L 430.816863 266.597988 
L 425.518195 268.687918 
L 420.219525 270.584707 
L 414.920859 272.291628 
L 409.622187 273.84276 
L 404.323521 275.230463 
L 399.02485 276.42621 
L 393.726184 277.485085 
L 388.427518 278.412005 
L 383.128847 279.206941 
L 377.830179 279.892343 
L 372.531511 280.480855 
L 367.23284 281.014106 
L 361.934171 281.468467 
L 356.635501 281.859349 
L 351.336837 282.202065 
L 346.038169 282.48941 
L 340.739501 282.76574 
L 335.440832 283.003345 
L 330.142161 283.205557 
L 324.843493 283.392152 
L 319.544822 283.565923 
L 314.246153 283.720924 
L 308.947488 283.8526 
L 303.648821 283.983093 
L 298.350152 284.094481 
L 293.051485 284.200387 
L 287.752813 284.296138 
L 282.454146 284.382391 
L 277.155477 284.452821 
L 271.856807 284.535099 
L 266.558139 284.604868 
L 261.259472 284.666064 
L 255.960801 284.724881 
L 250.662137 284.77452 
L 245.363467 284.830396 
L 240.064798 284.876093 
L 234.766125 284.918291 
L 229.467458 284.959841 
L 224.168793 284.996174 
L 218.870124 285.032685 
L 213.571455 285.060858 
L 208.272787 285.09938 
L 202.974117 285.124353 
L 197.675448 285.149425 
L 192.376783 285.170815 
L 187.078115 285.19296 
L 181.779447 285.213566 
L 176.480775 285.236125 
L 171.182107 285.252771 
L 165.883437 285.268909 
L 160.584771 285.287573 
L 155.286099 285.302214 
L 149.98743 285.314485 
L 144.688763 285.328711 
L 139.390099 285.337531 
L 134.09143 285.35082 
L 128.792761 285.36183 
L 123.494089 285.369913 
L 118.195422 285.379545 
L 112.896754 285.389791 
L 107.598085 285.395043 
L 102.299416 285.403694 
L 97.000749 285.409138 
L 91.702082 285.418531 
L 86.403409 285.421882 
" style="fill:none;stroke:#1f77b4;stroke-dasharray:5.55,2.4;stroke-dashoffset:0;stroke-width:1.5;"/>
   </g>
   <g id="line2d_47">
    <path clip-path="url(#pbc65cc3c0e)" d="M 610.971591 165.020703 
L 605.672923 165.075806 
L 600.374251 165.140777 
L 595.075583 165.217567 
L 589.776918 165.308143 
L 584.47825 165.41594 
L 579.179581 165.543653 
L 573.88091 165.695498 
L 568.582244 165.877257 
L 563.283571 166.095547 
L 557.984907 166.358275 
L 552.686235 166.677286 
L 547.387566 167.061 
L 542.088902 167.528006 
L 536.790231 168.102218 
L 531.491566 168.802732 
L 526.192897 169.668764 
L 520.894224 170.72905 
L 515.595557 172.045717 
L 510.296892 173.662562 
L 504.998219 175.638876 
L 499.699551 178.072069 
L 494.400884 181.008807 
L 489.102216 184.531437 
L 483.803548 188.680202 
L 478.50488 193.562265 
L 473.206211 199.068987 
L 467.90754 205.279275 
L 462.608873 211.897755 
L 457.310204 218.968941 
L 452.011536 226.188201 
L 446.71287 233.414085 
L 441.414196 240.365779 
L 436.115531 246.87797 
L 430.816863 252.808448 
L 425.518195 258.067539 
L 420.219525 262.574288 
L 414.920859 266.397358 
L 409.622187 269.547123 
L 404.323521 272.180769 
L 399.02485 274.283584 
L 393.726184 275.986726 
L 388.427518 277.381014 
L 383.128847 278.487308 
L 377.830179 279.401269 
L 372.531511 280.147697 
L 367.23284 280.768232 
L 361.934171 281.291539 
L 356.635501 281.724407 
L 351.336837 282.099159 
L 346.038169 282.424388 
L 340.739501 282.713483 
L 335.440832 282.947869 
L 330.142161 283.17322 
L 324.843493 283.365178 
L 319.544822 283.532865 
L 314.246153 283.697946 
L 308.947488 283.831461 
L 303.648821 283.967789 
L 298.350152 284.081622 
L 293.051485 284.186943 
L 287.752813 284.283912 
L 282.454146 284.367954 
L 277.155477 284.452201 
L 271.856807 284.530874 
L 266.558139 284.587924 
L 261.259472 284.662209 
L 255.960801 284.718035 
L 250.662137 284.775184 
L 245.363467 284.821231 
L 240.064798 284.870643 
L 234.766125 284.917395 
L 229.467458 284.957124 
L 224.168793 284.998298 
L 218.870124 285.032359 
L 213.571455 285.059656 
L 208.272787 285.090982 
L 202.974117 285.122037 
L 197.675448 285.147875 
L 192.376783 285.17032 
L 187.078115 285.191125 
L 181.779447 285.216429 
L 176.480775 285.232023 
L 171.182107 285.251106 
L 165.883437 285.267977 
L 160.584771 285.283589 
L 155.286099 285.300023 
L 149.98743 285.31571 
L 144.688763 285.326297 
L 139.390099 285.338244 
L 134.09143 285.347932 
L 128.792761 285.361794 
L 123.494089 285.368579 
L 118.195422 285.376688 
L 112.896754 285.386573 
L 107.598085 285.394555 
L 102.299416 285.402764 
L 97.000749 285.40982 
L 91.702082 285.415611 
L 86.403409 285.420845 
" style="fill:none;stroke:#ff7f0e;stroke-dasharray:5.55,2.4;stroke-dashoffset:0;stroke-width:1.5;"/>
   </g>
   <g id="line2d_48">
    <path clip-path="url(#pbc65cc3c0e)" d="M 610.971591 104.543009 
L 605.672923 104.585132 
L 600.374251 104.634383 
L 595.075583 104.692235 
L 589.776918 104.760267 
L 584.47825 104.840334 
L 579.179581 104.934795 
L 573.88091 105.046649 
L 568.582244 105.179245 
L 563.283571 105.337662 
L 557.984907 105.527381 
L 552.686235 105.755062 
L 547.387566 106.030605 
L 542.088902 106.365302 
L 536.790231 106.774707 
L 531.491566 107.281712 
L 526.192897 107.910456 
L 520.894224 108.700098 
L 515.595557 109.700893 
L 510.296892 110.982642 
L 504.998219 112.641229 
L 499.699551 114.798323 
L 494.400884 117.616139 
L 489.102216 121.280114 
L 483.803548 126.043645 
L 478.50488 132.20274 
L 473.206211 139.888642 
L 467.90754 149.304951 
L 462.608873 160.511359 
L 457.310204 173.135198 
L 452.011536 186.862374 
L 446.71287 201.027076 
L 441.414196 214.894135 
L 436.115531 227.69154 
L 430.816863 239.004513 
L 425.518195 248.612674 
L 420.219525 256.349251 
L 414.920859 262.484665 
L 409.622187 267.205449 
L 404.323521 270.758844 
L 399.02485 273.473191 
L 393.726184 275.522148 
L 388.427518 277.109697 
L 383.128847 278.335952 
L 377.830179 279.322405 
L 372.531511 280.093752 
L 367.23284 280.735236 
L 361.934171 281.263191 
L 356.635501 281.701374 
L 351.336837 282.089035 
L 346.038169 282.413704 
L 340.739501 282.707191 
L 335.440832 282.946257 
L 330.142161 283.169609 
L 324.843493 283.366406 
L 319.544822 283.535731 
L 314.246153 283.699733 
L 308.947488 283.835053 
L 303.648821 283.966458 
L 298.350152 284.079353 
L 293.051485 284.184954 
L 287.752813 284.277824 
L 282.454146 284.372473 
L 277.155477 284.449829 
L 271.856807 284.525245 
L 266.558139 284.593914 
L 261.259472 284.655856 
L 255.960801 284.717586 
L 250.662137 284.774574 
L 245.363467 284.827982 
L 240.064798 284.87194 
L 234.766125 284.915837 
L 229.467458 284.954511 
L 224.168793 284.993931 
L 218.870124 285.026683 
L 213.571455 285.059931 
L 208.272787 285.094167 
L 202.974117 285.121091 
L 197.675448 285.145444 
L 192.376783 285.174531 
L 187.078115 285.192025 
L 181.779447 285.210629 
L 176.480775 285.233785 
L 171.182107 285.252642 
L 165.883437 285.269625 
L 160.584771 285.286734 
L 155.286099 285.299137 
L 149.98743 285.313843 
L 144.688763 285.32743 
L 139.390099 285.335112 
L 134.09143 285.35025 
L 128.792761 285.356753 
L 123.494089 285.370103 
L 118.195422 285.378009 
L 112.896754 285.385013 
L 107.598085 285.396677 
L 102.299416 285.400359 
L 97.000749 285.408687 
L 91.702082 285.417071 
L 86.403409 285.422111 
" style="fill:none;stroke:#2ca02c;stroke-dasharray:5.55,2.4;stroke-dashoffset:0;stroke-width:1.5;"/>
   </g>
   <g id="line2d_49">
    <path clip-path="url(#pbc65cc3c0e)" d="M 610.971591 44.124069 
L 605.672923 44.156238 
L 600.374251 44.205922 
L 595.075583 44.259716 
L 589.776918 44.319771 
L 584.47825 44.392243 
L 579.179581 44.477755 
L 573.88091 44.575701 
L 568.582244 44.694493 
L 563.283571 44.833435 
L 557.984907 44.998321 
L 552.686235 45.194682 
L 547.387566 45.429161 
L 542.088902 45.710653 
L 536.790231 46.050448 
L 531.491566 46.463443 
L 526.192897 46.968904 
L 520.894224 47.594873 
L 515.595557 48.378376 
L 510.296892 49.371818 
L 504.998219 50.652267 
L 499.699551 52.329236 
L 494.400884 54.567906 
L 489.102216 57.616958 
L 483.803548 61.834222 
L 478.50488 67.644019 
L 473.206211 75.693248 
L 467.90754 86.633321 
L 462.608873 100.898578 
L 457.310204 118.768432 
L 452.011536 139.761665 
L 446.71287 162.672216 
L 441.414196 185.792273 
L 436.115531 207.216415 
L 430.816863 225.686863 
L 425.518195 240.483699 
L 420.219525 251.752281 
L 414.920859 260.015523 
L 409.622187 265.907745 
L 404.323521 270.151212 
L 399.02485 273.176846 
L 393.726184 275.385081 
L 388.427518 277.045962 
L 383.128847 278.311151 
L 377.830179 279.278721 
L 372.531511 280.087261 
L 367.23284 280.719001 
L 361.934171 281.264322 
L 356.635501 281.714823 
L 351.336837 282.08392 
L 346.038169 282.41272 
L 340.739501 282.708879 
L 335.440832 282.946149 
L 330.142161 283.17428 
L 324.843493 283.367746 
L 319.544822 283.530927 
L 314.246153 283.69872 
L 308.947488 283.832151 
L 303.648821 283.954145 
L 298.350152 284.078238 
L 293.051485 284.183577 
L 287.752813 284.278097 
L 282.454146 284.374196 
L 277.155477 284.446431 
L 271.856807 284.521907 
L 266.558139 284.594648 
L 261.259472 284.659627 
L 255.960801 284.717538 
L 250.662137 284.774299 
L 245.363467 284.822011 
L 240.064798 284.872988 
L 234.766125 284.913406 
L 229.467458 284.958259 
L 224.168793 284.99559 
L 218.870124 285.029118 
L 213.571455 285.062382 
L 208.272787 285.089119 
L 202.974117 285.117583 
L 197.675448 285.140905 
L 192.376783 285.168605 
L 187.078115 285.189882 
L 181.779447 285.216613 
L 176.480775 285.234172 
L 171.182107 285.249982 
L 165.883437 285.268939 
L 160.584771 285.286678 
L 155.286099 285.299797 
L 149.98743 285.314667 
L 144.688763 285.330388 
L 139.390099 285.337877 
L 134.09143 285.34788 
L 128.792761 285.358955 
L 123.494089 285.368937 
L 118.195422 285.377829 
L 112.896754 285.387504 
L 107.598085 285.395939 
L 102.299416 285.401774 
L 97.000749 285.407972 
L 91.702082 285.415517 
L 86.403409 285.422727 
" style="fill:none;stroke:#d62728;stroke-dasharray:5.55,2.4;stroke-dashoffset:0;stroke-width:1.5;"/>
   </g>
   <g id="patch_3">
    <path d="M 60.175 297.5 
L 60.175 31.8 
" style="fill:none;stroke:#000000;stroke-linecap:square;stroke-linejoin:miter;stroke-width:0.8;"/>
   </g>
   <g id="patch_4">
    <path d="M 637.2 297.5 
L 637.2 31.8 
" style="fill:none;stroke:#000000;stroke-linecap:square;stroke-linejoin:miter;stroke-width:0.8;"/>
   </g>
   <g id="patch_5">
    <path d="M 60.175 297.5 
L 637.2 297.5 
" style="fill:none;stroke:#000000;stroke-linecap:square;stroke-linejoin:miter;stroke-width:0.8;"/>
   </g>
   <g id="patch_6">
    <path d="M 60.175 31.8 
L 637.2 31.8 
" style="fill:none;stroke:#000000;stroke-linecap:square;stroke-linejoin:miter;stroke-width:0.8;"/>
   </g>
   <g id="text_14">
    <!-- Mean sample entropy -->
    <g transform="translate(240.04375 25.8)scale(0.2 -0.2)">
     <use xlink:href="#DejaVuSans-77"/>
     <use x="86.279297" xlink:href="#DejaVuSans-101"/>
     <use x="147.802734" xlink:href="#DejaVuSans-97"/>
     <use x="209.082031" xlink:href="#DejaVuSans-110"/>
     <use x="272.460938" xlink:href="#DejaVuSans-32"/>
     <use x="304.248047" xlink:href="#DejaVuSans-115"/>
     <use x="356.347656" xlink:href="#DejaVuSans-97"/>
     <use x="417.626953" xlink:href="#DejaVuSans-109"/>
     <use x="515.039062" xlink:href="#DejaVuSans-112"/>
     <use x="578.515625" xlink:href="#DejaVuSans-108"/>
     <use x="606.298828" xlink:href="#DejaVuSans-101"/>
     <use x="667.822266" xlink:href="#DejaVuSans-32"/>
     <use x="699.609375" xlink:href="#DejaVuSans-101"/>
     <use x="761.132812" xlink:href="#DejaVuSans-110"/>
     <use x="824.511719" xlink:href="#DejaVuSans-116"/>
     <use x="863.720703" xlink:href="#DejaVuSans-114"/>
     <use x="902.583984" xlink:href="#DejaVuSans-111"/>
     <use x="963.765625" xlink:href="#DejaVuSans-112"/>
     <use x="1027.242188" xlink:href="#DejaVuSans-121"/>
    </g>
   </g>
   <g id="legend_1">
    <g id="patch_7">
     <path d="M 71.375 260.99 
L 318.895 260.99 
Q 322.095 260.99 322.095 257.79 
L 322.095 71.51 
Q 322.095 68.31 318.895 68.31 
L 71.375 68.31 
Q 68.175 68.31 68.175 71.51 
L 68.175 257.79 
Q 68.175 260.99 71.375 260.99 
z
" style="fill:#ffffff;opacity:0.8;stroke:#cccccc;stroke-linejoin:miter;"/>
    </g>
    <g id="line2d_50">
     <path d="M 74.575 81.2675 
L 106.575 81.2675 
" style="fill:none;stroke:#1f77b4;stroke-linecap:square;stroke-width:1.5;"/>
    </g>
    <g id="line2d_51"/>
    <g id="text_15">
     <!-- $n =$10 (Balanced) -->
     <defs>
      <path d="M 55.71875 33.015625 
L 49.3125 0 
L 40.28125 0 
L 46.6875 32.671875 
Q 47.125 34.96875 47.359375 36.71875 
Q 47.609375 38.484375 47.609375 39.5 
Q 47.609375 43.609375 45.015625 45.890625 
Q 42.4375 48.1875 37.796875 48.1875 
Q 30.5625 48.1875 25.34375 43.375 
Q 20.125 38.578125 18.5 30.328125 
L 12.5 0 
L 3.515625 0 
L 14.109375 54.6875 
L 23.09375 54.6875 
L 21.296875 46.09375 
Q 25.046875 50.828125 30.3125 53.40625 
Q 35.59375 56 41.40625 56 
Q 48.640625 56 52.609375 52.09375 
Q 56.59375 48.1875 56.59375 41.109375 
Q 56.59375 39.359375 56.375 37.359375 
Q 56.15625 35.359375 55.71875 33.015625 
z
" id="DejaVuSans-Oblique-110"/>
      <path d="M 10.59375 45.40625 
L 73.1875 45.40625 
L 73.1875 37.203125 
L 10.59375 37.203125 
z
M 10.59375 25.484375 
L 73.1875 25.484375 
L 73.1875 17.1875 
L 10.59375 17.1875 
z
" id="DejaVuSans-61"/>
      <path d="M 19.671875 34.8125 
L 19.671875 8.109375 
L 35.5 8.109375 
Q 43.453125 8.109375 47.28125 11.40625 
Q 51.125 14.703125 51.125 21.484375 
Q 51.125 28.328125 47.28125 31.5625 
Q 43.453125 34.8125 35.5 34.8125 
z
M 19.671875 64.796875 
L 19.671875 42.828125 
L 34.28125 42.828125 
Q 41.5 42.828125 45.03125 45.53125 
Q 48.578125 48.25 48.578125 53.8125 
Q 48.578125 59.328125 45.03125 62.0625 
Q 41.5 64.796875 34.28125 64.796875 
z
M 9.8125 72.90625 
L 35.015625 72.90625 
Q 46.296875 72.90625 52.390625 68.21875 
Q 58.5 63.53125 58.5 54.890625 
Q 58.5 48.1875 55.375 44.234375 
Q 52.25 40.28125 46.1875 39.3125 
Q 53.46875 37.75 57.5 32.78125 
Q 61.53125 27.828125 61.53125 20.40625 
Q 61.53125 10.640625 54.890625 5.3125 
Q 48.25 0 35.984375 0 
L 9.8125 0 
z
" id="DejaVuSans-66"/>
      <path d="M 48.78125 52.59375 
L 48.78125 44.1875 
Q 44.96875 46.296875 41.140625 47.34375 
Q 37.3125 48.390625 33.40625 48.390625 
Q 24.65625 48.390625 19.8125 42.84375 
Q 14.984375 37.3125 14.984375 27.296875 
Q 14.984375 17.28125 19.8125 11.734375 
Q 24.65625 6.203125 33.40625 6.203125 
Q 37.3125 6.203125 41.140625 7.25 
Q 44.96875 8.296875 48.78125 10.40625 
L 48.78125 2.09375 
Q 45.015625 0.34375 40.984375 -0.53125 
Q 36.96875 -1.421875 32.421875 -1.421875 
Q 20.0625 -1.421875 12.78125 6.34375 
Q 5.515625 14.109375 5.515625 27.296875 
Q 5.515625 40.671875 12.859375 48.328125 
Q 20.21875 56 33.015625 56 
Q 37.15625 56 41.109375 55.140625 
Q 45.0625 54.296875 48.78125 52.59375 
z
" id="DejaVuSans-99"/>
      <path d="M 45.40625 46.390625 
L 45.40625 75.984375 
L 54.390625 75.984375 
L 54.390625 0 
L 45.40625 0 
L 45.40625 8.203125 
Q 42.578125 3.328125 38.25 0.953125 
Q 33.9375 -1.421875 27.875 -1.421875 
Q 17.96875 -1.421875 11.734375 6.484375 
Q 5.515625 14.40625 5.515625 27.296875 
Q 5.515625 40.1875 11.734375 48.09375 
Q 17.96875 56 27.875 56 
Q 33.9375 56 38.25 53.625 
Q 42.578125 51.265625 45.40625 46.390625 
z
M 14.796875 27.296875 
Q 14.796875 17.390625 18.875 11.75 
Q 22.953125 6.109375 30.078125 6.109375 
Q 37.203125 6.109375 41.296875 11.75 
Q 45.40625 17.390625 45.40625 27.296875 
Q 45.40625 37.203125 41.296875 42.84375 
Q 37.203125 48.484375 30.078125 48.484375 
Q 22.953125 48.484375 18.875 42.84375 
Q 14.796875 37.203125 14.796875 27.296875 
z
" id="DejaVuSans-100"/>
     </defs>
     <g transform="translate(119.375 86.8675)scale(0.16 -0.16)">
      <use transform="translate(0 0.015625)" xlink:href="#DejaVuSans-Oblique-110"/>
      <use transform="translate(82.861328 0.015625)" xlink:href="#DejaVuSans-61"/>
      <use transform="translate(186.132812 0.015625)" xlink:href="#DejaVuSans-49"/>
      <use transform="translate(249.755859 0.015625)" xlink:href="#DejaVuSans-48"/>
      <use transform="translate(313.378906 0.015625)" xlink:href="#DejaVuSans-32"/>
      <use transform="translate(345.166016 0.015625)" xlink:href="#DejaVuSans-40"/>
      <use transform="translate(384.179688 0.015625)" xlink:href="#DejaVuSans-66"/>
      <use transform="translate(452.783203 0.015625)" xlink:href="#DejaVuSans-97"/>
      <use transform="translate(514.0625 0.015625)" xlink:href="#DejaVuSans-108"/>
      <use transform="translate(541.845703 0.015625)" xlink:href="#DejaVuSans-97"/>
      <use transform="translate(603.125 0.015625)" xlink:href="#DejaVuSans-110"/>
      <use transform="translate(666.503906 0.015625)" xlink:href="#DejaVuSans-99"/>
      <use transform="translate(721.484375 0.015625)" xlink:href="#DejaVuSans-101"/>
      <use transform="translate(783.007812 0.015625)" xlink:href="#DejaVuSans-100"/>
      <use transform="translate(846.484375 0.015625)" xlink:href="#DejaVuSans-41"/>
     </g>
    </g>
    <g id="line2d_52">
     <path d="M 74.575 104.7525 
L 106.575 104.7525 
" style="fill:none;stroke:#ff7f0e;stroke-linecap:square;stroke-width:1.5;"/>
    </g>
    <g id="line2d_53"/>
    <g id="text_16">
     <!-- $n =$100 (Balanced) -->
     <g transform="translate(119.375 110.3525)scale(0.16 -0.16)">
      <use transform="translate(0 0.015625)" xlink:href="#DejaVuSans-Oblique-110"/>
      <use transform="translate(82.861328 0.015625)" xlink:href="#DejaVuSans-61"/>
      <use transform="translate(186.132812 0.015625)" xlink:href="#DejaVuSans-49"/>
      <use transform="translate(249.755859 0.015625)" xlink:href="#DejaVuSans-48"/>
      <use transform="translate(313.378906 0.015625)" xlink:href="#DejaVuSans-48"/>
      <use transform="translate(377.001953 0.015625)" xlink:href="#DejaVuSans-32"/>
      <use transform="translate(408.789062 0.015625)" xlink:href="#DejaVuSans-40"/>
      <use transform="translate(447.802734 0.015625)" xlink:href="#DejaVuSans-66"/>
      <use transform="translate(516.40625 0.015625)" xlink:href="#DejaVuSans-97"/>
      <use transform="translate(577.685547 0.015625)" xlink:href="#DejaVuSans-108"/>
      <use transform="translate(605.46875 0.015625)" xlink:href="#DejaVuSans-97"/>
      <use transform="translate(666.748047 0.015625)" xlink:href="#DejaVuSans-110"/>
      <use transform="translate(730.126953 0.015625)" xlink:href="#DejaVuSans-99"/>
      <use transform="translate(785.107422 0.015625)" xlink:href="#DejaVuSans-101"/>
      <use transform="translate(846.630859 0.015625)" xlink:href="#DejaVuSans-100"/>
      <use transform="translate(910.107422 0.015625)" xlink:href="#DejaVuSans-41"/>
     </g>
    </g>
    <g id="line2d_54">
     <path d="M 74.575 128.2375 
L 106.575 128.2375 
" style="fill:none;stroke:#2ca02c;stroke-linecap:square;stroke-width:1.5;"/>
    </g>
    <g id="line2d_55"/>
    <g id="text_17">
     <!-- $n =$1,000 (Balanced) -->
     <defs>
      <path d="M 11.71875 12.40625 
L 22.015625 12.40625 
L 22.015625 4 
L 14.015625 -11.625 
L 7.71875 -11.625 
L 11.71875 4 
z
" id="DejaVuSans-44"/>
     </defs>
     <g transform="translate(119.375 133.8375)scale(0.16 -0.16)">
      <use transform="translate(0 0.015625)" xlink:href="#DejaVuSans-Oblique-110"/>
      <use transform="translate(82.861328 0.015625)" xlink:href="#DejaVuSans-61"/>
      <use transform="translate(186.132812 0.015625)" xlink:href="#DejaVuSans-49"/>
      <use transform="translate(249.755859 0.015625)" xlink:href="#DejaVuSans-44"/>
      <use transform="translate(281.542969 0.015625)" xlink:href="#DejaVuSans-48"/>
      <use transform="translate(345.166016 0.015625)" xlink:href="#DejaVuSans-48"/>
      <use transform="translate(408.789062 0.015625)" xlink:href="#DejaVuSans-48"/>
      <use transform="translate(472.412109 0.015625)" xlink:href="#DejaVuSans-32"/>
      <use transform="translate(504.199219 0.015625)" xlink:href="#DejaVuSans-40"/>
      <use transform="translate(543.212891 0.015625)" xlink:href="#DejaVuSans-66"/>
      <use transform="translate(611.816406 0.015625)" xlink:href="#DejaVuSans-97"/>
      <use transform="translate(673.095703 0.015625)" xlink:href="#DejaVuSans-108"/>
      <use transform="translate(700.878906 0.015625)" xlink:href="#DejaVuSans-97"/>
      <use transform="translate(762.158203 0.015625)" xlink:href="#DejaVuSans-110"/>
      <use transform="translate(825.537109 0.015625)" xlink:href="#DejaVuSans-99"/>
      <use transform="translate(880.517578 0.015625)" xlink:href="#DejaVuSans-101"/>
      <use transform="translate(942.041016 0.015625)" xlink:href="#DejaVuSans-100"/>
      <use transform="translate(1005.517578 0.015625)" xlink:href="#DejaVuSans-41"/>
     </g>
    </g>
    <g id="line2d_56">
     <path d="M 74.575 151.7225 
L 106.575 151.7225 
" style="fill:none;stroke:#d62728;stroke-linecap:square;stroke-width:1.5;"/>
    </g>
    <g id="line2d_57"/>
    <g id="text_18">
     <!-- $n =$10,000 (Balanced) -->
     <g transform="translate(119.375 157.3225)scale(0.16 -0.16)">
      <use transform="translate(0 0.015625)" xlink:href="#DejaVuSans-Oblique-110"/>
      <use transform="translate(82.861328 0.015625)" xlink:href="#DejaVuSans-61"/>
      <use transform="translate(186.132812 0.015625)" xlink:href="#DejaVuSans-49"/>
      <use transform="translate(249.755859 0.015625)" xlink:href="#DejaVuSans-48"/>
      <use transform="translate(313.378906 0.015625)" xlink:href="#DejaVuSans-44"/>
      <use transform="translate(345.166016 0.015625)" xlink:href="#DejaVuSans-48"/>
      <use transform="translate(408.789062 0.015625)" xlink:href="#DejaVuSans-48"/>
      <use transform="translate(472.412109 0.015625)" xlink:href="#DejaVuSans-48"/>
      <use transform="translate(536.035156 0.015625)" xlink:href="#DejaVuSans-32"/>
      <use transform="translate(567.822266 0.015625)" xlink:href="#DejaVuSans-40"/>
      <use transform="translate(606.835938 0.015625)" xlink:href="#DejaVuSans-66"/>
      <use transform="translate(675.439453 0.015625)" xlink:href="#DejaVuSans-97"/>
      <use transform="translate(736.71875 0.015625)" xlink:href="#DejaVuSans-108"/>
      <use transform="translate(764.501953 0.015625)" xlink:href="#DejaVuSans-97"/>
      <use transform="translate(825.78125 0.015625)" xlink:href="#DejaVuSans-110"/>
      <use transform="translate(889.160156 0.015625)" xlink:href="#DejaVuSans-99"/>
      <use transform="translate(944.140625 0.015625)" xlink:href="#DejaVuSans-101"/>
      <use transform="translate(1005.664062 0.015625)" xlink:href="#DejaVuSans-100"/>
      <use transform="translate(1069.140625 0.015625)" xlink:href="#DejaVuSans-41"/>
     </g>
    </g>
    <g id="line2d_58">
     <path d="M 74.575 175.2075 
L 106.575 175.2075 
" style="fill:none;stroke:#1f77b4;stroke-dasharray:5.55,2.4;stroke-dashoffset:0;stroke-width:1.5;"/>
    </g>
    <g id="line2d_59"/>
    <g id="text_19">
     <!-- $n =$10 (Imbalanced) -->
     <defs>
      <path d="M 9.8125 72.90625 
L 19.671875 72.90625 
L 19.671875 0 
L 9.8125 0 
z
" id="DejaVuSans-73"/>
      <path d="M 48.6875 27.296875 
Q 48.6875 37.203125 44.609375 42.84375 
Q 40.53125 48.484375 33.40625 48.484375 
Q 26.265625 48.484375 22.1875 42.84375 
Q 18.109375 37.203125 18.109375 27.296875 
Q 18.109375 17.390625 22.1875 11.75 
Q 26.265625 6.109375 33.40625 6.109375 
Q 40.53125 6.109375 44.609375 11.75 
Q 48.6875 17.390625 48.6875 27.296875 
z
M 18.109375 46.390625 
Q 20.953125 51.265625 25.265625 53.625 
Q 29.59375 56 35.59375 56 
Q 45.5625 56 51.78125 48.09375 
Q 58.015625 40.1875 58.015625 27.296875 
Q 58.015625 14.40625 51.78125 6.484375 
Q 45.5625 -1.421875 35.59375 -1.421875 
Q 29.59375 -1.421875 25.265625 0.953125 
Q 20.953125 3.328125 18.109375 8.203125 
L 18.109375 0 
L 9.078125 0 
L 9.078125 75.984375 
L 18.109375 75.984375 
z
" id="DejaVuSans-98"/>
     </defs>
     <g transform="translate(119.375 180.8075)scale(0.16 -0.16)">
      <use transform="translate(0 0.015625)" xlink:href="#DejaVuSans-Oblique-110"/>
      <use transform="translate(82.861328 0.015625)" xlink:href="#DejaVuSans-61"/>
      <use transform="translate(186.132812 0.015625)" xlink:href="#DejaVuSans-49"/>
      <use transform="translate(249.755859 0.015625)" xlink:href="#DejaVuSans-48"/>
      <use transform="translate(313.378906 0.015625)" xlink:href="#DejaVuSans-32"/>
      <use transform="translate(345.166016 0.015625)" xlink:href="#DejaVuSans-40"/>
      <use transform="translate(384.179688 0.015625)" xlink:href="#DejaVuSans-73"/>
      <use transform="translate(410.046875 0.015625)" xlink:href="#DejaVuSans-109"/>
      <use transform="translate(507.458984 0.015625)" xlink:href="#DejaVuSans-98"/>
      <use transform="translate(570.935547 0.015625)" xlink:href="#DejaVuSans-97"/>
      <use transform="translate(632.214844 0.015625)" xlink:href="#DejaVuSans-108"/>
      <use transform="translate(659.998047 0.015625)" xlink:href="#DejaVuSans-97"/>
      <use transform="translate(721.277344 0.015625)" xlink:href="#DejaVuSans-110"/>
      <use transform="translate(784.65625 0.015625)" xlink:href="#DejaVuSans-99"/>
      <use transform="translate(839.636719 0.015625)" xlink:href="#DejaVuSans-101"/>
      <use transform="translate(901.160156 0.015625)" xlink:href="#DejaVuSans-100"/>
      <use transform="translate(964.636719 0.015625)" xlink:href="#DejaVuSans-41"/>
     </g>
    </g>
    <g id="line2d_60">
     <path d="M 74.575 198.6925 
L 106.575 198.6925 
" style="fill:none;stroke:#ff7f0e;stroke-dasharray:5.55,2.4;stroke-dashoffset:0;stroke-width:1.5;"/>
    </g>
    <g id="line2d_61"/>
    <g id="text_20">
     <!-- $n =$100 (Imbalanced) -->
     <g transform="translate(119.375 204.2925)scale(0.16 -0.16)">
      <use transform="translate(0 0.015625)" xlink:href="#DejaVuSans-Oblique-110"/>
      <use transform="translate(82.861328 0.015625)" xlink:href="#DejaVuSans-61"/>
      <use transform="translate(186.132812 0.015625)" xlink:href="#DejaVuSans-49"/>
      <use transform="translate(249.755859 0.015625)" xlink:href="#DejaVuSans-48"/>
      <use transform="translate(313.378906 0.015625)" xlink:href="#DejaVuSans-48"/>
      <use transform="translate(377.001953 0.015625)" xlink:href="#DejaVuSans-32"/>
      <use transform="translate(408.789062 0.015625)" xlink:href="#DejaVuSans-40"/>
      <use transform="translate(447.802734 0.015625)" xlink:href="#DejaVuSans-73"/>
      <use transform="translate(473.669922 0.015625)" xlink:href="#DejaVuSans-109"/>
      <use transform="translate(571.082031 0.015625)" xlink:href="#DejaVuSans-98"/>
      <use transform="translate(634.558594 0.015625)" xlink:href="#DejaVuSans-97"/>
      <use transform="translate(695.837891 0.015625)" xlink:href="#DejaVuSans-108"/>
      <use transform="translate(723.621094 0.015625)" xlink:href="#DejaVuSans-97"/>
      <use transform="translate(784.900391 0.015625)" xlink:href="#DejaVuSans-110"/>
      <use transform="translate(848.279297 0.015625)" xlink:href="#DejaVuSans-99"/>
      <use transform="translate(903.259766 0.015625)" xlink:href="#DejaVuSans-101"/>
      <use transform="translate(964.783203 0.015625)" xlink:href="#DejaVuSans-100"/>
      <use transform="translate(1028.259766 0.015625)" xlink:href="#DejaVuSans-41"/>
     </g>
    </g>
    <g id="line2d_62">
     <path d="M 74.575 222.1775 
L 106.575 222.1775 
" style="fill:none;stroke:#2ca02c;stroke-dasharray:5.55,2.4;stroke-dashoffset:0;stroke-width:1.5;"/>
    </g>
    <g id="line2d_63"/>
    <g id="text_21">
     <!-- $n =$1,000 (Imbalanced) -->
     <g transform="translate(119.375 227.7775)scale(0.16 -0.16)">
      <use transform="translate(0 0.015625)" xlink:href="#DejaVuSans-Oblique-110"/>
      <use transform="translate(82.861328 0.015625)" xlink:href="#DejaVuSans-61"/>
      <use transform="translate(186.132812 0.015625)" xlink:href="#DejaVuSans-49"/>
      <use transform="translate(249.755859 0.015625)" xlink:href="#DejaVuSans-44"/>
      <use transform="translate(281.542969 0.015625)" xlink:href="#DejaVuSans-48"/>
      <use transform="translate(345.166016 0.015625)" xlink:href="#DejaVuSans-48"/>
      <use transform="translate(408.789062 0.015625)" xlink:href="#DejaVuSans-48"/>
      <use transform="translate(472.412109 0.015625)" xlink:href="#DejaVuSans-32"/>
      <use transform="translate(504.199219 0.015625)" xlink:href="#DejaVuSans-40"/>
      <use transform="translate(543.212891 0.015625)" xlink:href="#DejaVuSans-73"/>
      <use transform="translate(569.080078 0.015625)" xlink:href="#DejaVuSans-109"/>
      <use transform="translate(666.492188 0.015625)" xlink:href="#DejaVuSans-98"/>
      <use transform="translate(729.96875 0.015625)" xlink:href="#DejaVuSans-97"/>
      <use transform="translate(791.248047 0.015625)" xlink:href="#DejaVuSans-108"/>
      <use transform="translate(819.03125 0.015625)" xlink:href="#DejaVuSans-97"/>
      <use transform="translate(880.310547 0.015625)" xlink:href="#DejaVuSans-110"/>
      <use transform="translate(943.689453 0.015625)" xlink:href="#DejaVuSans-99"/>
      <use transform="translate(998.669922 0.015625)" xlink:href="#DejaVuSans-101"/>
      <use transform="translate(1060.193359 0.015625)" xlink:href="#DejaVuSans-100"/>
      <use transform="translate(1123.669922 0.015625)" xlink:href="#DejaVuSans-41"/>
     </g>
    </g>
    <g id="line2d_64">
     <path d="M 74.575 245.6625 
L 106.575 245.6625 
" style="fill:none;stroke:#d62728;stroke-dasharray:5.55,2.4;stroke-dashoffset:0;stroke-width:1.5;"/>
    </g>
    <g id="line2d_65"/>
    <g id="text_22">
     <!-- $n =$10,000 (Imbalanced) -->
     <g transform="translate(119.375 251.2625)scale(0.16 -0.16)">
      <use transform="translate(0 0.015625)" xlink:href="#DejaVuSans-Oblique-110"/>
      <use transform="translate(82.861328 0.015625)" xlink:href="#DejaVuSans-61"/>
      <use transform="translate(186.132812 0.015625)" xlink:href="#DejaVuSans-49"/>
      <use transform="translate(249.755859 0.015625)" xlink:href="#DejaVuSans-48"/>
      <use transform="translate(313.378906 0.015625)" xlink:href="#DejaVuSans-44"/>
      <use transform="translate(345.166016 0.015625)" xlink:href="#DejaVuSans-48"/>
      <use transform="translate(408.789062 0.015625)" xlink:href="#DejaVuSans-48"/>
      <use transform="translate(472.412109 0.015625)" xlink:href="#DejaVuSans-48"/>
      <use transform="translate(536.035156 0.015625)" xlink:href="#DejaVuSans-32"/>
      <use transform="translate(567.822266 0.015625)" xlink:href="#DejaVuSans-40"/>
      <use transform="translate(606.835938 0.015625)" xlink:href="#DejaVuSans-73"/>
      <use transform="translate(632.703125 0.015625)" xlink:href="#DejaVuSans-109"/>
      <use transform="translate(730.115234 0.015625)" xlink:href="#DejaVuSans-98"/>
      <use transform="translate(793.591797 0.015625)" xlink:href="#DejaVuSans-97"/>
      <use transform="translate(854.871094 0.015625)" xlink:href="#DejaVuSans-108"/>
      <use transform="translate(882.654297 0.015625)" xlink:href="#DejaVuSans-97"/>
      <use transform="translate(943.933594 0.015625)" xlink:href="#DejaVuSans-110"/>
      <use transform="translate(1007.3125 0.015625)" xlink:href="#DejaVuSans-99"/>
      <use transform="translate(1062.292969 0.015625)" xlink:href="#DejaVuSans-101"/>
      <use transform="translate(1123.816406 0.015625)" xlink:href="#DejaVuSans-100"/>
      <use transform="translate(1187.292969 0.015625)" xlink:href="#DejaVuSans-41"/>
     </g>
    </g>
   </g>
  </g>
 </g>
 <defs>
  <clipPath id="pbc65cc3c0e">
   <rect height="265.7" width="577.025" x="60.175" y="31.8"/>
  </clipPath>
 </defs>
</svg>
