<?xml version="1.0" encoding="utf-8" standalone="no"?>
<!DOCTYPE svg PUBLIC "-//W3C//DTD SVG 1.1//EN"
  "http://www.w3.org/Graphics/SVG/1.1/DTD/svg11.dtd">
<!-- Created with matplotlib (https://matplotlib.org/) -->
<svg height="360pt" version="1.1" viewBox="0 0 648 360" width="648pt" xmlns="http://www.w3.org/2000/svg" xmlns:xlink="http://www.w3.org/1999/xlink">
 <defs>
  <style type="text/css">
*{stroke-linecap:butt;stroke-linejoin:round;}
  </style>
 </defs>
 <g id="figure_1">
  <g id="patch_1">
   <path d="M 0 360 
L 648 360 
L 648 0 
L 0 0 
z
" style="fill:#ffffff;"/>
  </g>
  <g id="axes_1">
   <g id="patch_2">
    <path d="M 65.3 297.5 
L 637.2 297.5 
L 637.2 31.8 
L 65.3 31.8 
z
" style="fill:#ffffff;"/>
   </g>
   <g id="matplotlib.axis_1">
    <g id="xtick_1">
     <g id="line2d_1">
      <defs>
       <path d="M 0 0 
L 0 3.5 
" id="m167deff739" style="stroke:#000000;stroke-width:0.8;"/>
      </defs>
      <g>
       <use style="stroke:#000000;stroke-width:0.8;" x="91.295456" xlink:href="#m167deff739" y="297.5"/>
      </g>
     </g>
     <g id="text_1">
      <!-- $\mathdefault{10^{-2}}$ -->
      <defs>
       <path d="M 12.40625 8.296875 
L 28.515625 8.296875 
L 28.515625 63.921875 
L 10.984375 60.40625 
L 10.984375 69.390625 
L 28.421875 72.90625 
L 38.28125 72.90625 
L 38.28125 8.296875 
L 54.390625 8.296875 
L 54.390625 0 
L 12.40625 0 
z
" id="DejaVuSans-49"/>
       <path d="M 31.78125 66.40625 
Q 24.171875 66.40625 20.328125 58.90625 
Q 16.5 51.421875 16.5 36.375 
Q 16.5 21.390625 20.328125 13.890625 
Q 24.171875 6.390625 31.78125 6.390625 
Q 39.453125 6.390625 43.28125 13.890625 
Q 47.125 21.390625 47.125 36.375 
Q 47.125 51.421875 43.28125 58.90625 
Q 39.453125 66.40625 31.78125 66.40625 
z
M 31.78125 74.21875 
Q 44.046875 74.21875 50.515625 64.515625 
Q 56.984375 54.828125 56.984375 36.375 
Q 56.984375 17.96875 50.515625 8.265625 
Q 44.046875 -1.421875 31.78125 -1.421875 
Q 19.53125 -1.421875 13.0625 8.265625 
Q 6.59375 17.96875 6.59375 36.375 
Q 6.59375 54.828125 13.0625 64.515625 
Q 19.53125 74.21875 31.78125 74.21875 
z
" id="DejaVuSans-48"/>
       <path d="M 10.59375 35.5 
L 73.1875 35.5 
L 73.1875 27.203125 
L 10.59375 27.203125 
z
" id="DejaVuSans-8722"/>
       <path d="M 19.1875 8.296875 
L 53.609375 8.296875 
L 53.609375 0 
L 7.328125 0 
L 7.328125 8.296875 
Q 12.9375 14.109375 22.625 23.890625 
Q 32.328125 33.6875 34.8125 36.53125 
Q 39.546875 41.84375 41.421875 45.53125 
Q 43.3125 49.21875 43.3125 52.78125 
Q 43.3125 58.59375 39.234375 62.25 
Q 35.15625 65.921875 28.609375 65.921875 
Q 23.96875 65.921875 18.8125 64.3125 
Q 13.671875 62.703125 7.8125 59.421875 
L 7.8125 69.390625 
Q 13.765625 71.78125 18.9375 73 
Q 24.125 74.21875 28.421875 74.21875 
Q 39.75 74.21875 46.484375 68.546875 
Q 53.21875 62.890625 53.21875 53.421875 
Q 53.21875 48.921875 51.53125 44.890625 
Q 49.859375 40.875 45.40625 35.40625 
Q 44.1875 33.984375 37.640625 27.21875 
Q 31.109375 20.453125 19.1875 8.296875 
z
" id="DejaVuSans-50"/>
      </defs>
      <g transform="translate(72.495456 316.6575)scale(0.16 -0.16)">
       <use transform="translate(0 0.765625)" xlink:href="#DejaVuSans-49"/>
       <use transform="translate(63.623047 0.765625)" xlink:href="#DejaVuSans-48"/>
       <use transform="translate(128.203125 39.046875)scale(0.7)" xlink:href="#DejaVuSans-8722"/>
       <use transform="translate(186.855469 39.046875)scale(0.7)" xlink:href="#DejaVuSans-50"/>
      </g>
     </g>
    </g>
    <g id="xtick_2">
     <g id="line2d_2">
      <g>
       <use style="stroke:#000000;stroke-width:0.8;" x="264.598486" xlink:href="#m167deff739" y="297.5"/>
      </g>
     </g>
     <g id="text_2">
      <!-- $\mathdefault{10^{-1}}$ -->
      <g transform="translate(245.798486 316.6575)scale(0.16 -0.16)">
       <use transform="translate(0 0.684375)" xlink:href="#DejaVuSans-49"/>
       <use transform="translate(63.623047 0.684375)" xlink:href="#DejaVuSans-48"/>
       <use transform="translate(128.203125 38.965625)scale(0.7)" xlink:href="#DejaVuSans-8722"/>
       <use transform="translate(186.855469 38.965625)scale(0.7)" xlink:href="#DejaVuSans-49"/>
      </g>
     </g>
    </g>
    <g id="xtick_3">
     <g id="line2d_3">
      <g>
       <use style="stroke:#000000;stroke-width:0.8;" x="437.901516" xlink:href="#m167deff739" y="297.5"/>
      </g>
     </g>
     <g id="text_3">
      <!-- $\mathdefault{10^{0}}$ -->
      <g transform="translate(423.821516 316.6575)scale(0.16 -0.16)">
       <use transform="translate(0 0.765625)" xlink:href="#DejaVuSans-49"/>
       <use transform="translate(63.623047 0.765625)" xlink:href="#DejaVuSans-48"/>
       <use transform="translate(128.203125 39.046875)scale(0.7)" xlink:href="#DejaVuSans-48"/>
      </g>
     </g>
    </g>
    <g id="xtick_4">
     <g id="line2d_4">
      <g>
       <use style="stroke:#000000;stroke-width:0.8;" x="611.204545" xlink:href="#m167deff739" y="297.5"/>
      </g>
     </g>
     <g id="text_4">
      <!-- $\mathdefault{10^{1}}$ -->
      <g transform="translate(597.124545 316.6575)scale(0.16 -0.16)">
       <use transform="translate(0 0.684375)" xlink:href="#DejaVuSans-49"/>
       <use transform="translate(63.623047 0.684375)" xlink:href="#DejaVuSans-48"/>
       <use transform="translate(128.203125 38.965625)scale(0.7)" xlink:href="#DejaVuSans-49"/>
      </g>
     </g>
    </g>
    <g id="xtick_5">
     <g id="line2d_5">
      <defs>
       <path d="M 0 0 
L 0 2 
" id="mb930f9b032" style="stroke:#000000;stroke-width:0.6;"/>
      </defs>
      <g>
       <use style="stroke:#000000;stroke-width:0.6;" x="74.500657" xlink:href="#mb930f9b032" y="297.5"/>
      </g>
     </g>
    </g>
    <g id="xtick_6">
     <g id="line2d_6">
      <g>
       <use style="stroke:#000000;stroke-width:0.6;" x="83.365544" xlink:href="#mb930f9b032" y="297.5"/>
      </g>
     </g>
    </g>
    <g id="xtick_7">
     <g id="line2d_7">
      <g>
       <use style="stroke:#000000;stroke-width:0.6;" x="143.464867" xlink:href="#mb930f9b032" y="297.5"/>
      </g>
     </g>
    </g>
    <g id="xtick_8">
     <g id="line2d_8">
      <g>
       <use style="stroke:#000000;stroke-width:0.6;" x="173.982015" xlink:href="#mb930f9b032" y="297.5"/>
      </g>
     </g>
    </g>
    <g id="xtick_9">
     <g id="line2d_9">
      <g>
       <use style="stroke:#000000;stroke-width:0.6;" x="195.634277" xlink:href="#mb930f9b032" y="297.5"/>
      </g>
     </g>
    </g>
    <g id="xtick_10">
     <g id="line2d_10">
      <g>
       <use style="stroke:#000000;stroke-width:0.6;" x="212.429076" xlink:href="#mb930f9b032" y="297.5"/>
      </g>
     </g>
    </g>
    <g id="xtick_11">
     <g id="line2d_11">
      <g>
       <use style="stroke:#000000;stroke-width:0.6;" x="226.151426" xlink:href="#mb930f9b032" y="297.5"/>
      </g>
     </g>
    </g>
    <g id="xtick_12">
     <g id="line2d_12">
      <g>
       <use style="stroke:#000000;stroke-width:0.6;" x="237.753507" xlink:href="#mb930f9b032" y="297.5"/>
      </g>
     </g>
    </g>
    <g id="xtick_13">
     <g id="line2d_13">
      <g>
       <use style="stroke:#000000;stroke-width:0.6;" x="247.803687" xlink:href="#mb930f9b032" y="297.5"/>
      </g>
     </g>
    </g>
    <g id="xtick_14">
     <g id="line2d_14">
      <g>
       <use style="stroke:#000000;stroke-width:0.6;" x="256.668574" xlink:href="#mb930f9b032" y="297.5"/>
      </g>
     </g>
    </g>
    <g id="xtick_15">
     <g id="line2d_15">
      <g>
       <use style="stroke:#000000;stroke-width:0.6;" x="316.767896" xlink:href="#mb930f9b032" y="297.5"/>
      </g>
     </g>
    </g>
    <g id="xtick_16">
     <g id="line2d_16">
      <g>
       <use style="stroke:#000000;stroke-width:0.6;" x="347.285045" xlink:href="#mb930f9b032" y="297.5"/>
      </g>
     </g>
    </g>
    <g id="xtick_17">
     <g id="line2d_17">
      <g>
       <use style="stroke:#000000;stroke-width:0.6;" x="368.937307" xlink:href="#mb930f9b032" y="297.5"/>
      </g>
     </g>
    </g>
    <g id="xtick_18">
     <g id="line2d_18">
      <g>
       <use style="stroke:#000000;stroke-width:0.6;" x="385.732105" xlink:href="#mb930f9b032" y="297.5"/>
      </g>
     </g>
    </g>
    <g id="xtick_19">
     <g id="line2d_19">
      <g>
       <use style="stroke:#000000;stroke-width:0.6;" x="399.454455" xlink:href="#mb930f9b032" y="297.5"/>
      </g>
     </g>
    </g>
    <g id="xtick_20">
     <g id="line2d_20">
      <g>
       <use style="stroke:#000000;stroke-width:0.6;" x="411.056537" xlink:href="#mb930f9b032" y="297.5"/>
      </g>
     </g>
    </g>
    <g id="xtick_21">
     <g id="line2d_21">
      <g>
       <use style="stroke:#000000;stroke-width:0.6;" x="421.106717" xlink:href="#mb930f9b032" y="297.5"/>
      </g>
     </g>
    </g>
    <g id="xtick_22">
     <g id="line2d_22">
      <g>
       <use style="stroke:#000000;stroke-width:0.6;" x="429.971604" xlink:href="#mb930f9b032" y="297.5"/>
      </g>
     </g>
    </g>
    <g id="xtick_23">
     <g id="line2d_23">
      <g>
       <use style="stroke:#000000;stroke-width:0.6;" x="490.070926" xlink:href="#mb930f9b032" y="297.5"/>
      </g>
     </g>
    </g>
    <g id="xtick_24">
     <g id="line2d_24">
      <g>
       <use style="stroke:#000000;stroke-width:0.6;" x="520.588075" xlink:href="#mb930f9b032" y="297.5"/>
      </g>
     </g>
    </g>
    <g id="xtick_25">
     <g id="line2d_25">
      <g>
       <use style="stroke:#000000;stroke-width:0.6;" x="542.240336" xlink:href="#mb930f9b032" y="297.5"/>
      </g>
     </g>
    </g>
    <g id="xtick_26">
     <g id="line2d_26">
      <g>
       <use style="stroke:#000000;stroke-width:0.6;" x="559.035135" xlink:href="#mb930f9b032" y="297.5"/>
      </g>
     </g>
    </g>
    <g id="xtick_27">
     <g id="line2d_27">
      <g>
       <use style="stroke:#000000;stroke-width:0.6;" x="572.757485" xlink:href="#mb930f9b032" y="297.5"/>
      </g>
     </g>
    </g>
    <g id="xtick_28">
     <g id="line2d_28">
      <g>
       <use style="stroke:#000000;stroke-width:0.6;" x="584.359566" xlink:href="#mb930f9b032" y="297.5"/>
      </g>
     </g>
    </g>
    <g id="xtick_29">
     <g id="line2d_29">
      <g>
       <use style="stroke:#000000;stroke-width:0.6;" x="594.409747" xlink:href="#mb930f9b032" y="297.5"/>
      </g>
     </g>
    </g>
    <g id="xtick_30">
     <g id="line2d_30">
      <g>
       <use style="stroke:#000000;stroke-width:0.6;" x="603.274634" xlink:href="#mb930f9b032" y="297.5"/>
      </g>
     </g>
    </g>
    <g id="text_5">
     <!-- Temperature ($\lambda$) -->
     <defs>
      <path d="M -0.296875 72.90625 
L 61.375 72.90625 
L 61.375 64.59375 
L 35.5 64.59375 
L 35.5 0 
L 25.59375 0 
L 25.59375 64.59375 
L -0.296875 64.59375 
z
" id="DejaVuSans-84"/>
      <path d="M 56.203125 29.59375 
L 56.203125 25.203125 
L 14.890625 25.203125 
Q 15.484375 15.921875 20.484375 11.0625 
Q 25.484375 6.203125 34.421875 6.203125 
Q 39.59375 6.203125 44.453125 7.46875 
Q 49.3125 8.734375 54.109375 11.28125 
L 54.109375 2.78125 
Q 49.265625 0.734375 44.1875 -0.34375 
Q 39.109375 -1.421875 33.890625 -1.421875 
Q 20.796875 -1.421875 13.15625 6.1875 
Q 5.515625 13.8125 5.515625 26.8125 
Q 5.515625 40.234375 12.765625 48.109375 
Q 20.015625 56 32.328125 56 
Q 43.359375 56 49.78125 48.890625 
Q 56.203125 41.796875 56.203125 29.59375 
z
M 47.21875 32.234375 
Q 47.125 39.59375 43.09375 43.984375 
Q 39.0625 48.390625 32.421875 48.390625 
Q 24.90625 48.390625 20.390625 44.140625 
Q 15.875 39.890625 15.1875 32.171875 
z
" id="DejaVuSans-101"/>
      <path d="M 52 44.1875 
Q 55.375 50.25 60.0625 53.125 
Q 64.75 56 71.09375 56 
Q 79.640625 56 84.28125 50.015625 
Q 88.921875 44.046875 88.921875 33.015625 
L 88.921875 0 
L 79.890625 0 
L 79.890625 32.71875 
Q 79.890625 40.578125 77.09375 44.375 
Q 74.3125 48.1875 68.609375 48.1875 
Q 61.625 48.1875 57.5625 43.546875 
Q 53.515625 38.921875 53.515625 30.90625 
L 53.515625 0 
L 44.484375 0 
L 44.484375 32.71875 
Q 44.484375 40.625 41.703125 44.40625 
Q 38.921875 48.1875 33.109375 48.1875 
Q 26.21875 48.1875 22.15625 43.53125 
Q 18.109375 38.875 18.109375 30.90625 
L 18.109375 0 
L 9.078125 0 
L 9.078125 54.6875 
L 18.109375 54.6875 
L 18.109375 46.1875 
Q 21.1875 51.21875 25.484375 53.609375 
Q 29.78125 56 35.6875 56 
Q 41.65625 56 45.828125 52.96875 
Q 50 49.953125 52 44.1875 
z
" id="DejaVuSans-109"/>
      <path d="M 18.109375 8.203125 
L 18.109375 -20.796875 
L 9.078125 -20.796875 
L 9.078125 54.6875 
L 18.109375 54.6875 
L 18.109375 46.390625 
Q 20.953125 51.265625 25.265625 53.625 
Q 29.59375 56 35.59375 56 
Q 45.5625 56 51.78125 48.09375 
Q 58.015625 40.1875 58.015625 27.296875 
Q 58.015625 14.40625 51.78125 6.484375 
Q 45.5625 -1.421875 35.59375 -1.421875 
Q 29.59375 -1.421875 25.265625 0.953125 
Q 20.953125 3.328125 18.109375 8.203125 
z
M 48.6875 27.296875 
Q 48.6875 37.203125 44.609375 42.84375 
Q 40.53125 48.484375 33.40625 48.484375 
Q 26.265625 48.484375 22.1875 42.84375 
Q 18.109375 37.203125 18.109375 27.296875 
Q 18.109375 17.390625 22.1875 11.75 
Q 26.265625 6.109375 33.40625 6.109375 
Q 40.53125 6.109375 44.609375 11.75 
Q 48.6875 17.390625 48.6875 27.296875 
z
" id="DejaVuSans-112"/>
      <path d="M 41.109375 46.296875 
Q 39.59375 47.171875 37.8125 47.578125 
Q 36.03125 48 33.890625 48 
Q 26.265625 48 22.1875 43.046875 
Q 18.109375 38.09375 18.109375 28.8125 
L 18.109375 0 
L 9.078125 0 
L 9.078125 54.6875 
L 18.109375 54.6875 
L 18.109375 46.1875 
Q 20.953125 51.171875 25.484375 53.578125 
Q 30.03125 56 36.53125 56 
Q 37.453125 56 38.578125 55.875 
Q 39.703125 55.765625 41.0625 55.515625 
z
" id="DejaVuSans-114"/>
      <path d="M 34.28125 27.484375 
Q 23.390625 27.484375 19.1875 25 
Q 14.984375 22.515625 14.984375 16.5 
Q 14.984375 11.71875 18.140625 8.90625 
Q 21.296875 6.109375 26.703125 6.109375 
Q 34.1875 6.109375 38.703125 11.40625 
Q 43.21875 16.703125 43.21875 25.484375 
L 43.21875 27.484375 
z
M 52.203125 31.203125 
L 52.203125 0 
L 43.21875 0 
L 43.21875 8.296875 
Q 40.140625 3.328125 35.546875 0.953125 
Q 30.953125 -1.421875 24.3125 -1.421875 
Q 15.921875 -1.421875 10.953125 3.296875 
Q 6 8.015625 6 15.921875 
Q 6 25.140625 12.171875 29.828125 
Q 18.359375 34.515625 30.609375 34.515625 
L 43.21875 34.515625 
L 43.21875 35.40625 
Q 43.21875 41.609375 39.140625 45 
Q 35.0625 48.390625 27.6875 48.390625 
Q 23 48.390625 18.546875 47.265625 
Q 14.109375 46.140625 10.015625 43.890625 
L 10.015625 52.203125 
Q 14.9375 54.109375 19.578125 55.046875 
Q 24.21875 56 28.609375 56 
Q 40.484375 56 46.34375 49.84375 
Q 52.203125 43.703125 52.203125 31.203125 
z
" id="DejaVuSans-97"/>
      <path d="M 18.3125 70.21875 
L 18.3125 54.6875 
L 36.8125 54.6875 
L 36.8125 47.703125 
L 18.3125 47.703125 
L 18.3125 18.015625 
Q 18.3125 11.328125 20.140625 9.421875 
Q 21.96875 7.515625 27.59375 7.515625 
L 36.8125 7.515625 
L 36.8125 0 
L 27.59375 0 
Q 17.1875 0 13.234375 3.875 
Q 9.28125 7.765625 9.28125 18.015625 
L 9.28125 47.703125 
L 2.6875 47.703125 
L 2.6875 54.6875 
L 9.28125 54.6875 
L 9.28125 70.21875 
z
" id="DejaVuSans-116"/>
      <path d="M 8.5 21.578125 
L 8.5 54.6875 
L 17.484375 54.6875 
L 17.484375 21.921875 
Q 17.484375 14.15625 20.5 10.265625 
Q 23.53125 6.390625 29.59375 6.390625 
Q 36.859375 6.390625 41.078125 11.03125 
Q 45.3125 15.671875 45.3125 23.6875 
L 45.3125 54.6875 
L 54.296875 54.6875 
L 54.296875 0 
L 45.3125 0 
L 45.3125 8.40625 
Q 42.046875 3.421875 37.71875 1 
Q 33.40625 -1.421875 27.6875 -1.421875 
Q 18.265625 -1.421875 13.375 4.4375 
Q 8.5 10.296875 8.5 21.578125 
z
M 31.109375 56 
z
" id="DejaVuSans-117"/>
      <path id="DejaVuSans-32"/>
      <path d="M 31 75.875 
Q 24.46875 64.65625 21.28125 53.65625 
Q 18.109375 42.671875 18.109375 31.390625 
Q 18.109375 20.125 21.3125 9.0625 
Q 24.515625 -2 31 -13.1875 
L 23.1875 -13.1875 
Q 15.875 -1.703125 12.234375 9.375 
Q 8.59375 20.453125 8.59375 31.390625 
Q 8.59375 42.28125 12.203125 53.3125 
Q 15.828125 64.359375 23.1875 75.875 
z
" id="DejaVuSans-40"/>
      <path d="M 36.71875 67.4375 
L 48.828125 0 
L 39.3125 0 
L 31.84375 40.4375 
L 5.125 0 
L -4.390625 0 
L 29.734375 52.4375 
L 28.03125 62.109375 
Q 26.953125 68.265625 21.734375 68.265625 
L 17.046875 68.265625 
L 18.5 75.984375 
L 24.21875 75.875 
Q 35.203125 75.734375 36.71875 67.4375 
z
" id="DejaVuSans-Oblique-955"/>
      <path d="M 8.015625 75.875 
L 15.828125 75.875 
Q 23.140625 64.359375 26.78125 53.3125 
Q 30.421875 42.28125 30.421875 31.390625 
Q 30.421875 20.453125 26.78125 9.375 
Q 23.140625 -1.703125 15.828125 -13.1875 
L 8.015625 -13.1875 
Q 14.5 -2 17.703125 9.0625 
Q 20.90625 20.125 20.90625 31.390625 
Q 20.90625 42.671875 17.703125 53.65625 
Q 14.5 64.65625 8.015625 75.875 
z
" id="DejaVuSans-41"/>
     </defs>
     <g transform="translate(277.27 337.665)scale(0.18 -0.18)">
      <use transform="translate(0 0.015625)" xlink:href="#DejaVuSans-84"/>
      <use transform="translate(61.083984 0.015625)" xlink:href="#DejaVuSans-101"/>
      <use transform="translate(122.607422 0.015625)" xlink:href="#DejaVuSans-109"/>
      <use transform="translate(220.019531 0.015625)" xlink:href="#DejaVuSans-112"/>
      <use transform="translate(283.496094 0.015625)" xlink:href="#DejaVuSans-101"/>
      <use transform="translate(345.019531 0.015625)" xlink:href="#DejaVuSans-114"/>
      <use transform="translate(386.132812 0.015625)" xlink:href="#DejaVuSans-97"/>
      <use transform="translate(447.412109 0.015625)" xlink:href="#DejaVuSans-116"/>
      <use transform="translate(486.621094 0.015625)" xlink:href="#DejaVuSans-117"/>
      <use transform="translate(550 0.015625)" xlink:href="#DejaVuSans-114"/>
      <use transform="translate(591.113281 0.015625)" xlink:href="#DejaVuSans-101"/>
      <use transform="translate(652.636719 0.015625)" xlink:href="#DejaVuSans-32"/>
      <use transform="translate(684.423828 0.015625)" xlink:href="#DejaVuSans-40"/>
      <use transform="translate(723.4375 0.015625)" xlink:href="#DejaVuSans-Oblique-955"/>
      <use transform="translate(782.617188 0.015625)" xlink:href="#DejaVuSans-41"/>
     </g>
    </g>
   </g>
   <g id="matplotlib.axis_2">
    <g id="ytick_1">
     <g id="line2d_31">
      <defs>
       <path d="M 0 0 
L -3.5 0 
" id="mee4398290c" style="stroke:#000000;stroke-width:0.8;"/>
      </defs>
      <g>
       <use style="stroke:#000000;stroke-width:0.8;" x="65.3" xlink:href="#mee4398290c" y="285.446915"/>
      </g>
     </g>
     <g id="text_6">
      <!-- 0.0 -->
      <defs>
       <path d="M 10.6875 12.40625 
L 21 12.40625 
L 21 0 
L 10.6875 0 
z
" id="DejaVuSans-46"/>
      </defs>
      <g transform="translate(32.855 291.525665)scale(0.16 -0.16)">
       <use xlink:href="#DejaVuSans-48"/>
       <use x="63.623047" xlink:href="#DejaVuSans-46"/>
       <use x="95.410156" xlink:href="#DejaVuSans-48"/>
      </g>
     </g>
    </g>
    <g id="ytick_2">
     <g id="line2d_32">
      <g>
       <use style="stroke:#000000;stroke-width:0.8;" x="65.3" xlink:href="#mee4398290c" y="237.07065"/>
      </g>
     </g>
     <g id="text_7">
      <!-- 0.2 -->
      <g transform="translate(32.855 243.1494)scale(0.16 -0.16)">
       <use xlink:href="#DejaVuSans-48"/>
       <use x="63.623047" xlink:href="#DejaVuSans-46"/>
       <use x="95.410156" xlink:href="#DejaVuSans-50"/>
      </g>
     </g>
    </g>
    <g id="ytick_3">
     <g id="line2d_33">
      <g>
       <use style="stroke:#000000;stroke-width:0.8;" x="65.3" xlink:href="#mee4398290c" y="188.694384"/>
      </g>
     </g>
     <g id="text_8">
      <!-- 0.4 -->
      <defs>
       <path d="M 37.796875 64.3125 
L 12.890625 25.390625 
L 37.796875 25.390625 
z
M 35.203125 72.90625 
L 47.609375 72.90625 
L 47.609375 25.390625 
L 58.015625 25.390625 
L 58.015625 17.1875 
L 47.609375 17.1875 
L 47.609375 0 
L 37.796875 0 
L 37.796875 17.1875 
L 4.890625 17.1875 
L 4.890625 26.703125 
z
" id="DejaVuSans-52"/>
      </defs>
      <g transform="translate(32.855 194.773134)scale(0.16 -0.16)">
       <use xlink:href="#DejaVuSans-48"/>
       <use x="63.623047" xlink:href="#DejaVuSans-46"/>
       <use x="95.410156" xlink:href="#DejaVuSans-52"/>
      </g>
     </g>
    </g>
    <g id="ytick_4">
     <g id="line2d_34">
      <g>
       <use style="stroke:#000000;stroke-width:0.8;" x="65.3" xlink:href="#mee4398290c" y="140.318118"/>
      </g>
     </g>
     <g id="text_9">
      <!-- 0.6 -->
      <defs>
       <path d="M 33.015625 40.375 
Q 26.375 40.375 22.484375 35.828125 
Q 18.609375 31.296875 18.609375 23.390625 
Q 18.609375 15.53125 22.484375 10.953125 
Q 26.375 6.390625 33.015625 6.390625 
Q 39.65625 6.390625 43.53125 10.953125 
Q 47.40625 15.53125 47.40625 23.390625 
Q 47.40625 31.296875 43.53125 35.828125 
Q 39.65625 40.375 33.015625 40.375 
z
M 52.59375 71.296875 
L 52.59375 62.3125 
Q 48.875 64.0625 45.09375 64.984375 
Q 41.3125 65.921875 37.59375 65.921875 
Q 27.828125 65.921875 22.671875 59.328125 
Q 17.53125 52.734375 16.796875 39.40625 
Q 19.671875 43.65625 24.015625 45.921875 
Q 28.375 48.1875 33.59375 48.1875 
Q 44.578125 48.1875 50.953125 41.515625 
Q 57.328125 34.859375 57.328125 23.390625 
Q 57.328125 12.15625 50.6875 5.359375 
Q 44.046875 -1.421875 33.015625 -1.421875 
Q 20.359375 -1.421875 13.671875 8.265625 
Q 6.984375 17.96875 6.984375 36.375 
Q 6.984375 53.65625 15.1875 63.9375 
Q 23.390625 74.21875 37.203125 74.21875 
Q 40.921875 74.21875 44.703125 73.484375 
Q 48.484375 72.75 52.59375 71.296875 
z
" id="DejaVuSans-54"/>
      </defs>
      <g transform="translate(32.855 146.396868)scale(0.16 -0.16)">
       <use xlink:href="#DejaVuSans-48"/>
       <use x="63.623047" xlink:href="#DejaVuSans-46"/>
       <use x="95.410156" xlink:href="#DejaVuSans-54"/>
      </g>
     </g>
    </g>
    <g id="ytick_5">
     <g id="line2d_35">
      <g>
       <use style="stroke:#000000;stroke-width:0.8;" x="65.3" xlink:href="#mee4398290c" y="91.941852"/>
      </g>
     </g>
     <g id="text_10">
      <!-- 0.8 -->
      <defs>
       <path d="M 31.78125 34.625 
Q 24.75 34.625 20.71875 30.859375 
Q 16.703125 27.09375 16.703125 20.515625 
Q 16.703125 13.921875 20.71875 10.15625 
Q 24.75 6.390625 31.78125 6.390625 
Q 38.8125 6.390625 42.859375 10.171875 
Q 46.921875 13.96875 46.921875 20.515625 
Q 46.921875 27.09375 42.890625 30.859375 
Q 38.875 34.625 31.78125 34.625 
z
M 21.921875 38.8125 
Q 15.578125 40.375 12.03125 44.71875 
Q 8.5 49.078125 8.5 55.328125 
Q 8.5 64.0625 14.71875 69.140625 
Q 20.953125 74.21875 31.78125 74.21875 
Q 42.671875 74.21875 48.875 69.140625 
Q 55.078125 64.0625 55.078125 55.328125 
Q 55.078125 49.078125 51.53125 44.71875 
Q 48 40.375 41.703125 38.8125 
Q 48.828125 37.15625 52.796875 32.3125 
Q 56.78125 27.484375 56.78125 20.515625 
Q 56.78125 9.90625 50.3125 4.234375 
Q 43.84375 -1.421875 31.78125 -1.421875 
Q 19.734375 -1.421875 13.25 4.234375 
Q 6.78125 9.90625 6.78125 20.515625 
Q 6.78125 27.484375 10.78125 32.3125 
Q 14.796875 37.15625 21.921875 38.8125 
z
M 18.3125 54.390625 
Q 18.3125 48.734375 21.84375 45.5625 
Q 25.390625 42.390625 31.78125 42.390625 
Q 38.140625 42.390625 41.71875 45.5625 
Q 45.3125 48.734375 45.3125 54.390625 
Q 45.3125 60.0625 41.71875 63.234375 
Q 38.140625 66.40625 31.78125 66.40625 
Q 25.390625 66.40625 21.84375 63.234375 
Q 18.3125 60.0625 18.3125 54.390625 
z
" id="DejaVuSans-56"/>
      </defs>
      <g transform="translate(32.855 98.020602)scale(0.16 -0.16)">
       <use xlink:href="#DejaVuSans-48"/>
       <use x="63.623047" xlink:href="#DejaVuSans-46"/>
       <use x="95.410156" xlink:href="#DejaVuSans-56"/>
      </g>
     </g>
    </g>
    <g id="ytick_6">
     <g id="line2d_36">
      <g>
       <use style="stroke:#000000;stroke-width:0.8;" x="65.3" xlink:href="#mee4398290c" y="43.565586"/>
      </g>
     </g>
     <g id="text_11">
      <!-- 1.0 -->
      <g transform="translate(32.855 49.644336)scale(0.16 -0.16)">
       <use xlink:href="#DejaVuSans-49"/>
       <use x="63.623047" xlink:href="#DejaVuSans-46"/>
       <use x="95.410156" xlink:href="#DejaVuSans-48"/>
      </g>
     </g>
    </g>
    <g id="text_12">
     <!-- Mean max value -->
     <defs>
      <path d="M 9.8125 72.90625 
L 24.515625 72.90625 
L 43.109375 23.296875 
L 61.8125 72.90625 
L 76.515625 72.90625 
L 76.515625 0 
L 66.890625 0 
L 66.890625 64.015625 
L 48.09375 14.015625 
L 38.1875 14.015625 
L 19.390625 64.015625 
L 19.390625 0 
L 9.8125 0 
z
" id="DejaVuSans-77"/>
      <path d="M 54.890625 33.015625 
L 54.890625 0 
L 45.90625 0 
L 45.90625 32.71875 
Q 45.90625 40.484375 42.875 44.328125 
Q 39.84375 48.1875 33.796875 48.1875 
Q 26.515625 48.1875 22.3125 43.546875 
Q 18.109375 38.921875 18.109375 30.90625 
L 18.109375 0 
L 9.078125 0 
L 9.078125 54.6875 
L 18.109375 54.6875 
L 18.109375 46.1875 
Q 21.34375 51.125 25.703125 53.5625 
Q 30.078125 56 35.796875 56 
Q 45.21875 56 50.046875 50.171875 
Q 54.890625 44.34375 54.890625 33.015625 
z
" id="DejaVuSans-110"/>
      <path d="M 54.890625 54.6875 
L 35.109375 28.078125 
L 55.90625 0 
L 45.3125 0 
L 29.390625 21.484375 
L 13.484375 0 
L 2.875 0 
L 24.125 28.609375 
L 4.6875 54.6875 
L 15.28125 54.6875 
L 29.78125 35.203125 
L 44.28125 54.6875 
z
" id="DejaVuSans-120"/>
      <path d="M 2.984375 54.6875 
L 12.5 54.6875 
L 29.59375 8.796875 
L 46.6875 54.6875 
L 56.203125 54.6875 
L 35.6875 0 
L 23.484375 0 
z
" id="DejaVuSans-118"/>
      <path d="M 9.421875 75.984375 
L 18.40625 75.984375 
L 18.40625 0 
L 9.421875 0 
z
" id="DejaVuSans-108"/>
     </defs>
     <g transform="translate(25.111563 239.085625)rotate(-90)scale(0.18 -0.18)">
      <use xlink:href="#DejaVuSans-77"/>
      <use x="86.279297" xlink:href="#DejaVuSans-101"/>
      <use x="147.802734" xlink:href="#DejaVuSans-97"/>
      <use x="209.082031" xlink:href="#DejaVuSans-110"/>
      <use x="272.460938" xlink:href="#DejaVuSans-32"/>
      <use x="304.248047" xlink:href="#DejaVuSans-109"/>
      <use x="401.660156" xlink:href="#DejaVuSans-97"/>
      <use x="462.939453" xlink:href="#DejaVuSans-120"/>
      <use x="522.119141" xlink:href="#DejaVuSans-32"/>
      <use x="553.90625" xlink:href="#DejaVuSans-118"/>
      <use x="613.085938" xlink:href="#DejaVuSans-97"/>
      <use x="674.365234" xlink:href="#DejaVuSans-108"/>
      <use x="702.148438" xlink:href="#DejaVuSans-117"/>
      <use x="765.527344" xlink:href="#DejaVuSans-101"/>
     </g>
    </g>
   </g>
   <g id="line2d_37">
    <path clip-path="url(#pfca7d3ba27)" d="M 611.204545 255.064336 
L 605.952939 254.567853 
L 600.701329 254.032436 
L 595.449723 253.437015 
L 590.198119 252.802998 
L 584.946512 252.100431 
L 579.694905 251.341136 
L 574.443295 250.502632 
L 569.191691 249.602257 
L 563.94008 248.595925 
L 558.688476 247.519811 
L 553.436867 246.324682 
L 548.185259 244.998324 
L 542.933657 243.57874 
L 537.682046 242.022459 
L 532.430443 240.27413 
L 527.178836 238.407499 
L 521.927225 236.323046 
L 516.675619 234.108765 
L 511.424016 231.611373 
L 506.172404 228.909624 
L 500.920797 225.992599 
L 495.669192 222.854126 
L 490.417585 219.416563 
L 485.165979 215.73873 
L 479.914373 211.746543 
L 474.662765 207.547533 
L 469.411156 203.129236 
L 464.15955 198.412107 
L 458.907943 193.509434 
L 453.656336 188.33819 
L 448.404732 182.965414 
L 443.153119 177.447636 
L 437.901516 171.929441 
L 432.64991 166.279731 
L 427.398302 160.614761 
L 422.146694 154.890435 
L 416.89509 149.228333 
L 411.64348 143.576829 
L 406.391875 138.138166 
L 401.140266 132.718981 
L 395.888661 127.680123 
L 390.637057 122.582082 
L 385.385447 117.832204 
L 380.133841 113.192516 
L 374.882234 108.892283 
L 369.630625 104.572082 
L 364.379017 100.618497 
L 359.127409 96.84122 
L 353.875806 93.454103 
L 348.6242 90.092894 
L 343.372594 86.967292 
L 338.120986 84.11618 
L 332.869376 81.486661 
L 327.61777 78.847266 
L 322.36616 76.412077 
L 317.114553 74.257102 
L 311.862949 72.074777 
L 306.611344 70.285192 
L 301.359737 68.339844 
L 296.108131 66.69397 
L 290.85652 65.085625 
L 285.604915 63.700416 
L 280.353308 62.319993 
L 275.101699 61.131853 
L 269.850093 59.952853 
L 264.598487 58.847122 
L 259.346878 57.676283 
L 254.095275 56.762445 
L 248.843667 55.852731 
L 243.592059 55.054102 
L 238.340448 54.319875 
L 233.088842 53.527186 
L 227.837239 52.841126 
L 222.585632 52.233266 
L 217.334024 51.678202 
L 212.082417 51.100214 
L 206.830808 50.572918 
L 201.579202 50.098042 
L 196.327598 49.704711 
L 191.075991 49.256493 
L 185.824385 48.861388 
L 180.572775 48.521776 
L 175.321168 48.193394 
L 170.06956 47.892895 
L 164.817955 47.563346 
L 159.566344 47.31361 
L 154.314737 47.062462 
L 149.063132 46.824 
L 143.811529 46.607453 
L 138.559921 46.410859 
L 133.308315 46.220667 
L 128.056704 46.002895 
L 122.805098 45.858289 
L 117.553491 45.710167 
L 112.301884 45.562765 
L 107.050277 45.427862 
L 101.798672 45.309713 
L 96.547066 45.182207 
L 91.295455 45.080205 
" style="fill:none;stroke:#1f77b4;stroke-linecap:square;stroke-width:1.5;"/>
   </g>
   <g id="line2d_38">
    <path clip-path="url(#pfca7d3ba27)" d="M 65.3 261.258782 
L 637.2 261.258782 
" style="fill:none;stroke:#1f77b4;stroke-dasharray:1.5,2.475;stroke-dashoffset:0;stroke-width:1.5;"/>
   </g>
   <g id="line2d_39">
    <path clip-path="url(#pfca7d3ba27)" d="M 611.204545 281.615617 
L 605.952939 281.485399 
L 600.701329 281.34343 
L 595.449723 281.182935 
L 590.198119 281.006335 
L 584.946512 280.807657 
L 579.694905 280.586454 
L 574.443295 280.334276 
L 569.191691 280.054072 
L 563.94008 279.733295 
L 558.688476 279.369105 
L 553.436867 278.953611 
L 548.185259 278.481998 
L 542.933657 277.938872 
L 537.682046 277.311705 
L 532.430443 276.58075 
L 527.178836 275.732649 
L 521.927225 274.734667 
L 516.675619 273.571594 
L 511.424016 272.199666 
L 506.172404 270.60666 
L 500.920797 268.739477 
L 495.669192 266.509174 
L 490.417585 263.920401 
L 485.165979 260.876948 
L 479.914373 257.334617 
L 474.662765 253.299852 
L 469.411156 248.594678 
L 464.15955 243.42015 
L 458.907943 237.61512 
L 453.656336 231.037959 
L 448.404732 224.07464 
L 443.153119 216.552079 
L 437.901516 208.664834 
L 432.64991 200.636025 
L 427.398302 192.062548 
L 422.146694 183.753057 
L 416.89509 175.361244 
L 411.64348 167.203747 
L 406.391875 159.211847 
L 401.140266 151.535987 
L 395.888661 144.200735 
L 390.637057 137.241903 
L 385.385447 130.880061 
L 380.133841 124.784029 
L 374.882234 119.07771 
L 369.630625 113.681737 
L 364.379017 108.811359 
L 359.127409 104.286288 
L 353.875806 100.027375 
L 348.6242 96.165051 
L 343.372594 92.441508 
L 338.120986 89.062998 
L 332.869376 85.842876 
L 327.61777 82.931082 
L 322.36616 80.258354 
L 317.114553 77.655868 
L 311.862949 75.322998 
L 306.611344 73.155234 
L 301.359737 71.124046 
L 296.108131 69.183469 
L 290.85652 67.433691 
L 285.604915 65.875128 
L 280.353308 64.349279 
L 275.101699 62.86485 
L 269.850093 61.552966 
L 264.598487 60.291716 
L 259.346878 59.227435 
L 254.095275 58.185918 
L 248.843667 57.160174 
L 243.592059 56.219492 
L 238.340448 55.353073 
L 233.088842 54.54242 
L 227.837239 53.7997 
L 222.585632 53.162963 
L 217.334024 52.458074 
L 212.082417 51.845341 
L 206.830808 51.31098 
L 201.579202 50.796602 
L 196.327598 50.263553 
L 191.075991 49.84835 
L 185.824385 49.401502 
L 180.572775 49.014009 
L 175.321168 48.654775 
L 170.06956 48.310606 
L 164.817955 47.999165 
L 159.566344 47.669024 
L 154.314737 47.43483 
L 149.063132 47.173172 
L 143.811529 46.918895 
L 138.559921 46.682149 
L 133.308315 46.472104 
L 128.056704 46.268532 
L 122.805098 46.076322 
L 117.553491 45.919866 
L 112.301884 45.764866 
L 107.050277 45.621255 
L 101.798672 45.481177 
L 96.547066 45.352057 
L 91.295455 45.235681 
" style="fill:none;stroke:#ff7f0e;stroke-linecap:square;stroke-width:1.5;"/>
   </g>
   <g id="line2d_40">
    <path clip-path="url(#pfca7d3ba27)" d="M 65.3 283.028102 
L 637.2 283.028102 
" style="fill:none;stroke:#ff7f0e;stroke-dasharray:1.5,2.475;stroke-dashoffset:0;stroke-width:1.5;"/>
   </g>
   <g id="line2d_41">
    <path clip-path="url(#pfca7d3ba27)" d="M 611.204545 284.964451 
L 605.952939 284.939723 
L 600.701329 284.911846 
L 595.449723 284.880206 
L 590.198119 284.844038 
L 584.946512 284.803248 
L 579.694905 284.755931 
L 574.443295 284.701598 
L 569.191691 284.638446 
L 563.94008 284.564973 
L 558.688476 284.479573 
L 553.436867 284.376562 
L 548.185259 284.25587 
L 542.933657 284.110727 
L 537.682046 283.936239 
L 532.430443 283.722449 
L 527.178836 283.461812 
L 521.927225 283.139388 
L 516.675619 282.73959 
L 511.424016 282.228869 
L 506.172404 281.581612 
L 500.920797 280.756351 
L 495.669192 279.687088 
L 490.417585 278.323299 
L 485.165979 276.549688 
L 479.914373 274.277885 
L 474.662765 271.379124 
L 469.411156 267.700831 
L 464.15955 263.170295 
L 458.907943 257.588514 
L 453.656336 250.997154 
L 448.404732 243.256482 
L 443.153119 234.700579 
L 437.901516 225.257647 
L 432.64991 215.355901 
L 427.398302 204.876405 
L 422.146694 194.516046 
L 416.89509 184.298851 
L 411.64348 174.325314 
L 406.391875 165.018813 
L 401.140266 155.995041 
L 395.888661 147.912226 
L 390.637057 140.142669 
L 385.385447 133.19475 
L 380.133841 126.714485 
L 374.882234 120.5172 
L 369.630625 114.899749 
L 364.379017 109.829923 
L 359.127409 105.328367 
L 353.875806 100.794387 
L 348.6242 96.677959 
L 343.372594 93.02062 
L 338.120986 89.596436 
L 332.869376 86.332414 
L 327.61777 83.320203 
L 322.36616 80.629973 
L 317.114553 78.077197 
L 311.862949 75.713965 
L 306.611344 73.388217 
L 301.359737 71.379317 
L 296.108131 69.508506 
L 290.85652 67.68928 
L 285.604915 66.064585 
L 280.353308 64.486228 
L 275.101699 63.04185 
L 269.850093 61.712825 
L 264.598487 60.533335 
L 259.346878 59.310868 
L 254.095275 58.271441 
L 248.843667 57.290564 
L 243.592059 56.335522 
L 238.340448 55.482194 
L 233.088842 54.664851 
L 227.837239 53.910353 
L 222.585632 53.206589 
L 217.334024 52.510625 
L 212.082417 51.941187 
L 206.830808 51.37629 
L 201.579202 50.847394 
L 196.327598 50.368092 
L 191.075991 49.924589 
L 185.824385 49.477957 
L 180.572775 49.062769 
L 175.321168 48.71328 
L 170.06956 48.34985 
L 164.817955 48.035453 
L 159.566344 47.738198 
L 154.314737 47.434484 
L 149.063132 47.179991 
L 143.811529 46.956192 
L 138.559921 46.712065 
L 133.308315 46.479875 
L 128.056704 46.317811 
L 122.805098 46.140262 
L 117.553491 45.926397 
L 112.301884 45.767807 
L 107.050277 45.641598 
L 101.798672 45.479404 
L 96.547066 45.385836 
L 91.295455 45.258027 
" style="fill:none;stroke:#2ca02c;stroke-linecap:square;stroke-width:1.5;"/>
   </g>
   <g id="line2d_42">
    <path clip-path="url(#pfca7d3ba27)" d="M 65.3 283.995627 
L 637.2 283.995627 
" style="fill:none;stroke:#2ca02c;stroke-dasharray:1.5,2.475;stroke-dashoffset:0;stroke-width:1.5;"/>
   </g>
   <g id="line2d_43">
    <path clip-path="url(#pfca7d3ba27)" d="M 611.204545 285.386183 
L 605.952939 285.382011 
L 600.701329 285.377226 
L 595.449723 285.371661 
L 590.198119 285.365253 
L 584.946512 285.357747 
L 579.694905 285.348967 
L 574.443295 285.338518 
L 569.191691 285.326085 
L 563.94008 285.31124 
L 558.688476 285.293275 
L 553.436867 285.271438 
L 548.185259 285.244384 
L 542.933657 285.210885 
L 537.682046 285.168751 
L 532.430443 285.114859 
L 527.178836 285.046245 
L 521.927225 284.956634 
L 516.675619 284.83799 
L 511.424016 284.68014 
L 506.172404 284.463802 
L 500.920797 284.168977 
L 495.669192 283.755161 
L 490.417585 283.169892 
L 485.165979 282.327552 
L 479.914373 281.11401 
L 474.662765 279.383611 
L 469.411156 276.905075 
L 464.15955 273.435975 
L 458.907943 268.766946 
L 453.656336 262.574226 
L 448.404732 254.925275 
L 443.153119 245.643042 
L 437.901516 235.045587 
L 432.64991 223.609518 
L 427.398302 211.45003 
L 422.146694 199.558055 
L 416.89509 187.825541 
L 411.64348 176.876526 
L 406.391875 166.609432 
L 401.140266 157.102603 
L 395.888661 148.533335 
L 390.637057 140.642284 
L 385.385447 133.380401 
L 380.133841 126.881061 
L 374.882234 120.672258 
L 369.630625 115.232327 
L 364.379017 109.97845 
L 359.127409 105.240523 
L 353.875806 100.843103 
L 348.6242 96.900461 
L 343.372594 93.101169 
L 338.120986 89.608691 
L 332.869376 86.451299 
L 327.61777 83.450463 
L 322.36616 80.618728 
L 317.114553 78.072627 
L 311.862949 75.78373 
L 306.611344 73.529607 
L 301.359737 71.382071 
L 296.108131 69.602492 
L 290.85652 67.75211 
L 285.604915 66.040004 
L 280.353308 64.539226 
L 275.101699 63.106223 
L 269.850093 61.76206 
L 264.598487 60.516294 
L 259.346878 59.340553 
L 254.095275 58.300968 
L 248.843667 57.268448 
L 243.592059 56.392701 
L 238.340448 55.47151 
L 233.088842 54.666393 
L 227.837239 53.966825 
L 222.585632 53.190182 
L 217.334024 52.570933 
L 212.082417 51.98415 
L 206.830808 51.397743 
L 201.579202 50.878693 
L 196.327598 50.356674 
L 191.075991 49.886585 
L 185.824385 49.472521 
L 180.572775 49.071433 
L 175.321168 48.699122 
L 170.06956 48.36767 
L 164.817955 48.017374 
L 159.566344 47.7353 
L 154.314737 47.477404 
L 149.063132 47.170259 
L 143.811529 46.93471 
L 138.559921 46.681284 
L 133.308315 46.450968 
L 128.056704 46.280729 
L 122.805098 46.108241 
L 117.553491 45.965121 
L 112.301884 45.801514 
L 107.050277 45.626691 
L 101.798672 45.478727 
L 96.547066 45.37028 
L 91.295455 45.241606 
" style="fill:none;stroke:#d62728;stroke-linecap:square;stroke-width:1.5;"/>
   </g>
   <g id="line2d_44">
    <path clip-path="url(#pfca7d3ba27)" d="M 65.3 285.422727 
L 637.2 285.422727 
" style="fill:none;stroke:#d62728;stroke-dasharray:1.5,2.475;stroke-dashoffset:0;stroke-width:1.5;"/>
   </g>
   <g id="line2d_45">
    <path clip-path="url(#pfca7d3ba27)" d="M 611.204545 249.553479 
L 605.952939 248.543371 
L 600.701329 247.450828 
L 595.449723 246.241631 
L 590.198119 244.933388 
L 584.946512 243.474673 
L 579.694905 241.871539 
L 574.443295 240.110804 
L 569.191691 238.179303 
L 563.94008 236.033721 
L 558.688476 233.677203 
L 553.436867 231.067778 
L 548.185259 228.158903 
L 542.933657 225.023508 
L 537.682046 221.564878 
L 532.430443 217.739714 
L 527.178836 213.575969 
L 521.927225 208.993778 
L 516.675619 204.041308 
L 511.424016 198.62187 
L 506.172404 192.87816 
L 500.920797 186.626293 
L 495.669192 180.107309 
L 490.417585 173.264925 
L 485.165979 166.053791 
L 479.914373 158.605371 
L 474.662765 151.029481 
L 469.411156 143.380826 
L 464.15955 135.790461 
L 458.907943 128.280486 
L 453.656336 121.039091 
L 448.404732 113.964964 
L 443.153119 107.230868 
L 437.901516 101.071472 
L 432.64991 95.273733 
L 427.398302 90.046802 
L 422.146694 85.200588 
L 416.89509 80.855574 
L 411.64348 77.07762 
L 406.391875 73.629547 
L 401.140266 70.536298 
L 395.888661 67.870865 
L 390.637057 65.450194 
L 385.385447 63.449123 
L 380.133841 61.591244 
L 374.882234 59.971466 
L 369.630625 58.573166 
L 364.379017 57.288156 
L 359.127409 56.116841 
L 353.875806 55.099978 
L 348.6242 54.168249 
L 343.372594 53.319995 
L 338.120986 52.583778 
L 332.869376 51.911819 
L 327.61777 51.258674 
L 322.36616 50.745204 
L 317.114553 50.191538 
L 311.862949 49.720022 
L 306.611344 49.276807 
L 301.359737 48.864416 
L 296.108131 48.479836 
L 290.85652 48.13721 
L 285.604915 47.824543 
L 280.353308 47.55804 
L 275.101699 47.286765 
L 269.850093 47.002053 
L 264.598487 46.75275 
L 259.346878 46.565629 
L 254.095275 46.319339 
L 248.843667 46.164757 
L 243.592059 45.971869 
L 238.340448 45.821006 
L 233.088842 45.662489 
L 227.837239 45.515707 
L 222.585632 45.372918 
L 217.334024 45.259527 
L 212.082417 45.126167 
L 206.830808 45.038395 
L 201.579202 44.926892 
L 196.327598 44.835313 
L 191.075991 44.764453 
L 185.824385 44.675801 
L 180.572775 44.603715 
L 175.321168 44.537064 
L 170.06956 44.457596 
L 164.817955 44.403949 
L 159.566344 44.34974 
L 154.314737 44.2889 
L 149.063132 44.248257 
L 143.811529 44.195851 
L 138.559921 44.157385 
L 133.308315 44.118142 
L 128.056704 44.075885 
L 122.805098 44.035661 
L 117.553491 44.001102 
L 112.301884 43.979419 
L 107.050277 43.956669 
L 101.798672 43.92632 
L 96.547066 43.902315 
L 91.295455 43.877575 
" style="fill:none;stroke:#1f77b4;stroke-dasharray:5.55,2.4;stroke-dashoffset:0;stroke-width:1.5;"/>
   </g>
   <g id="line2d_46">
    <path clip-path="url(#pfca7d3ba27)" d="M 611.204545 280.673146 
L 605.952939 280.434727 
L 600.701329 280.166332 
L 595.449723 279.861753 
L 590.198119 279.517218 
L 584.946512 279.123477 
L 579.694905 278.674054 
L 574.443295 278.16277 
L 569.191691 277.568778 
L 563.94008 276.883005 
L 558.688476 276.08394 
L 553.436867 275.144448 
L 548.185259 274.047821 
L 542.933657 272.747049 
L 537.682046 271.217039 
L 532.430443 269.386163 
L 527.178836 267.194505 
L 521.927225 264.586521 
L 516.675619 261.474808 
L 511.424016 257.700554 
L 506.172404 253.253159 
L 500.920797 247.919443 
L 495.669192 241.681805 
L 490.417585 234.380981 
L 485.165979 226.013122 
L 479.914373 216.497935 
L 474.662765 205.879796 
L 469.411156 194.447478 
L 464.15955 182.188158 
L 458.907943 169.526813 
L 453.656336 156.807785 
L 448.404732 144.21867 
L 443.153119 132.320301 
L 437.901516 121.205711 
L 432.64991 111.102534 
L 427.398302 102.101715 
L 422.146694 94.262911 
L 416.89509 87.57002 
L 411.64348 81.849543 
L 406.391875 77.135318 
L 401.140266 73.010586 
L 395.888661 69.63816 
L 390.637057 66.734757 
L 385.385447 64.324769 
L 380.133841 62.219894 
L 374.882234 60.406723 
L 369.630625 58.869628 
L 364.379017 57.534936 
L 359.127409 56.304698 
L 353.875806 55.222697 
L 348.6242 54.327458 
L 343.372594 53.472443 
L 338.120986 52.681196 
L 332.869376 52.026537 
L 327.61777 51.358932 
L 322.36616 50.768531 
L 317.114553 50.243311 
L 311.862949 49.778729 
L 306.611344 49.306795 
L 301.359737 48.917255 
L 296.108131 48.518921 
L 290.85652 48.192687 
L 285.604915 47.825336 
L 280.353308 47.575571 
L 275.101699 47.277971 
L 269.850093 47.049774 
L 264.598487 46.780633 
L 259.346878 46.563163 
L 254.095275 46.367031 
L 248.843667 46.169515 
L 243.592059 45.98013 
L 238.340448 45.810049 
L 233.088842 45.668501 
L 227.837239 45.522324 
L 222.585632 45.39675 
L 217.334024 45.263088 
L 212.082417 45.154266 
L 206.830808 45.052062 
L 201.579202 44.950161 
L 196.327598 44.85508 
L 191.075991 44.779288 
L 185.824385 44.68856 
L 180.572775 44.617454 
L 175.321168 44.534368 
L 170.06956 44.471509 
L 164.817955 44.424177 
L 159.566344 44.356228 
L 154.314737 44.303274 
L 149.063132 44.254255 
L 143.811529 44.199686 
L 138.559921 44.153824 
L 133.308315 44.131665 
L 128.056704 44.09764 
L 122.805098 44.05622 
L 117.553491 44.011137 
L 112.301884 43.996821 
L 107.050277 43.968289 
L 101.798672 43.91976 
L 96.547066 43.903873 
L 91.295455 43.879392 
" style="fill:none;stroke:#ff7f0e;stroke-dasharray:5.55,2.4;stroke-dashoffset:0;stroke-width:1.5;"/>
   </g>
   <g id="line2d_47">
    <path clip-path="url(#pfca7d3ba27)" d="M 611.204545 284.840401 
L 605.952939 284.798864 
L 600.701329 284.75104 
L 595.449723 284.695793 
L 590.198119 284.631715 
L 584.946512 284.557278 
L 579.694905 284.469039 
L 574.443295 284.365788 
L 569.191691 284.243105 
L 563.94008 284.095115 
L 558.688476 283.917615 
L 553.436867 283.701082 
L 548.185259 283.433757 
L 542.933657 283.104952 
L 537.682046 282.690576 
L 532.430443 282.166297 
L 527.178836 281.502676 
L 521.927225 280.645306 
L 516.675619 279.524618 
L 511.424016 278.058002 
L 506.172404 276.118274 
L 500.920797 273.551853 
L 495.669192 270.152225 
L 490.417585 265.672996 
L 485.165979 259.814575 
L 479.914373 252.200512 
L 474.662765 242.758485 
L 469.411156 231.279315 
L 464.15955 217.622365 
L 458.907943 202.186788 
L 453.656336 185.627732 
L 448.404732 168.381572 
L 443.153119 151.571454 
L 437.901516 135.842493 
L 432.64991 121.679087 
L 427.398302 109.312056 
L 422.146694 99.030912 
L 416.89509 90.57531 
L 411.64348 83.695701 
L 406.391875 78.184563 
L 401.140266 73.70185 
L 395.888661 70.002701 
L 390.637057 66.910705 
L 385.385447 64.460536 
L 380.133841 62.33565 
L 374.882234 60.500147 
L 369.630625 58.932155 
L 364.379017 57.577554 
L 359.127409 56.300473 
L 353.875806 55.270952 
L 348.6242 54.299114 
L 343.372594 53.415409 
L 338.120986 52.653111 
L 332.869376 51.998568 
L 327.61777 51.365276 
L 322.36616 50.769223 
L 317.114553 50.231027 
L 311.862949 49.763678 
L 306.611344 49.323865 
L 301.359737 48.89214 
L 296.108131 48.52995 
L 290.85652 48.150416 
L 285.604915 47.848043 
L 280.353308 47.564701 
L 275.101699 47.285929 
L 269.850093 47.020104 
L 264.598487 46.781296 
L 259.346878 46.565845 
L 254.095275 46.372337 
L 248.843667 46.153439 
L 243.592059 45.996075 
L 238.340448 45.838985 
L 233.088842 45.665142 
L 227.837239 45.538673 
L 222.585632 45.387148 
L 217.334024 45.269777 
L 212.082417 45.146596 
L 206.830808 45.049929 
L 201.579202 44.945807 
L 196.327598 44.860025 
L 191.075991 44.773809 
L 185.824385 44.691487 
L 180.572775 44.609078 
L 175.321168 44.538722 
L 170.06956 44.489299 
L 164.817955 44.41606 
L 159.566344 44.356344 
L 154.314737 44.308767 
L 149.063132 44.247724 
L 143.811529 44.20378 
L 138.559921 44.168573 
L 133.308315 44.1183 
L 128.056704 44.084348 
L 122.805098 44.061035 
L 117.553491 44.01513 
L 112.301884 43.985301 
L 107.050277 43.965924 
L 101.798672 43.937421 
L 96.547066 43.910879 
L 91.295455 43.877273 
" style="fill:none;stroke:#2ca02c;stroke-dasharray:5.55,2.4;stroke-dashoffset:0;stroke-width:1.5;"/>
   </g>
   <g id="line2d_48">
    <path clip-path="url(#pfca7d3ba27)" d="M 611.204545 285.370468 
L 605.952939 285.363839 
L 600.701329 285.356101 
L 595.449723 285.347002 
L 590.198119 285.336211 
L 584.946512 285.323353 
L 579.694905 285.30789 
L 574.443295 285.289282 
L 569.191691 285.26629 
L 563.94008 285.238143 
L 558.688476 285.202968 
L 553.436867 285.158716 
L 548.185259 285.102117 
L 542.933657 285.029354 
L 537.682046 284.933654 
L 532.430443 284.807692 
L 527.178836 284.638313 
L 521.927225 284.407933 
L 516.675619 284.084706 
L 511.424016 283.628945 
L 506.172404 282.982004 
L 500.920797 282.03253 
L 495.669192 280.637112 
L 490.417585 278.56748 
L 485.165979 275.504565 
L 479.914373 270.995024 
L 474.662765 264.457813 
L 469.411156 255.325006 
L 464.15955 243.091343 
L 458.907943 227.586646 
L 453.656336 209.060731 
L 448.404732 188.417701 
L 443.153119 167.388879 
L 437.901516 147.084503 
L 432.64991 129.130643 
L 427.398302 113.906069 
L 422.146694 101.652502 
L 416.89509 92.029967 
L 411.64348 84.570179 
L 406.391875 78.506673 
L 401.140266 73.811363 
L 395.888661 70.146844 
L 390.637057 67.05903 
L 385.385447 64.493177 
L 380.133841 62.366935 
L 374.882234 60.499714 
L 369.630625 58.880887 
L 364.379017 57.595171 
L 359.127409 56.340467 
L 353.875806 55.303449 
L 348.6242 54.343188 
L 343.372594 53.462986 
L 338.120986 52.635507 
L 332.869376 52.028181 
L 327.61777 51.327647 
L 322.36616 50.781146 
L 317.114553 50.215932 
L 311.862949 49.759511 
L 306.611344 49.314782 
L 301.359737 48.909643 
L 296.108131 48.504994 
L 290.85652 48.156702 
L 285.604915 47.846154 
L 280.353308 47.572875 
L 275.101699 47.311707 
L 269.850093 47.018921 
L 264.598487 46.798813 
L 259.346878 46.567604 
L 254.095275 46.373504 
L 248.843667 46.170423 
L 243.592059 45.985911 
L 238.340448 45.82066 
L 233.088842 45.669611 
L 227.837239 45.534911 
L 222.585632 45.365767 
L 217.334024 45.274088 
L 212.082417 45.184211 
L 206.830808 45.043052 
L 201.579202 44.93436 
L 196.327598 44.858251 
L 191.075991 44.767725 
L 185.824385 44.694731 
L 180.572775 44.61522 
L 175.321168 44.54358 
L 170.06956 44.46812 
L 164.817955 44.415483 
L 159.566344 44.348544 
L 154.314737 44.303548 
L 149.063132 44.240083 
L 143.811529 44.205308 
L 138.559921 44.163844 
L 133.308315 44.122395 
L 128.056704 44.085083 
L 122.805098 44.03951 
L 117.553491 44.015851 
L 112.301884 43.982331 
L 107.050277 43.965723 
L 101.798672 43.939728 
L 96.547066 43.90605 
L 91.295455 43.886284 
" style="fill:none;stroke:#d62728;stroke-dasharray:5.55,2.4;stroke-dashoffset:0;stroke-width:1.5;"/>
   </g>
   <g id="patch_3">
    <path d="M 65.3 297.5 
L 65.3 31.8 
" style="fill:none;stroke:#000000;stroke-linecap:square;stroke-linejoin:miter;stroke-width:0.8;"/>
   </g>
   <g id="patch_4">
    <path d="M 637.2 297.5 
L 637.2 31.8 
" style="fill:none;stroke:#000000;stroke-linecap:square;stroke-linejoin:miter;stroke-width:0.8;"/>
   </g>
   <g id="patch_5">
    <path d="M 65.3 297.5 
L 637.2 297.5 
" style="fill:none;stroke:#000000;stroke-linecap:square;stroke-linejoin:miter;stroke-width:0.8;"/>
   </g>
   <g id="patch_6">
    <path d="M 65.3 31.8 
L 637.2 31.8 
" style="fill:none;stroke:#000000;stroke-linecap:square;stroke-linejoin:miter;stroke-width:0.8;"/>
   </g>
   <g id="text_13">
    <!-- Mean max value -->
    <g transform="translate(268.54375 25.8)scale(0.2 -0.2)">
     <use xlink:href="#DejaVuSans-77"/>
     <use x="86.279297" xlink:href="#DejaVuSans-101"/>
     <use x="147.802734" xlink:href="#DejaVuSans-97"/>
     <use x="209.082031" xlink:href="#DejaVuSans-110"/>
     <use x="272.460938" xlink:href="#DejaVuSans-32"/>
     <use x="304.248047" xlink:href="#DejaVuSans-109"/>
     <use x="401.660156" xlink:href="#DejaVuSans-97"/>
     <use x="462.939453" xlink:href="#DejaVuSans-120"/>
     <use x="522.119141" xlink:href="#DejaVuSans-32"/>
     <use x="553.90625" xlink:href="#DejaVuSans-118"/>
     <use x="613.085938" xlink:href="#DejaVuSans-97"/>
     <use x="674.365234" xlink:href="#DejaVuSans-108"/>
     <use x="702.148438" xlink:href="#DejaVuSans-117"/>
     <use x="765.527344" xlink:href="#DejaVuSans-101"/>
    </g>
   </g>
   <g id="legend_1">
    <g id="patch_7">
     <path d="M 76.5 260.99 
L 324.02 260.99 
Q 327.22 260.99 327.22 257.79 
L 327.22 71.51 
Q 327.22 68.31 324.02 68.31 
L 76.5 68.31 
Q 73.3 68.31 73.3 71.51 
L 73.3 257.79 
Q 73.3 260.99 76.5 260.99 
z
" style="fill:#ffffff;opacity:0.8;stroke:#cccccc;stroke-linejoin:miter;"/>
    </g>
    <g id="line2d_49">
     <path d="M 79.7 81.2675 
L 111.7 81.2675 
" style="fill:none;stroke:#1f77b4;stroke-linecap:square;stroke-width:1.5;"/>
    </g>
    <g id="line2d_50"/>
    <g id="text_14">
     <!-- $n =$10 (Balanced) -->
     <defs>
      <path d="M 55.71875 33.015625 
L 49.3125 0 
L 40.28125 0 
L 46.6875 32.671875 
Q 47.125 34.96875 47.359375 36.71875 
Q 47.609375 38.484375 47.609375 39.5 
Q 47.609375 43.609375 45.015625 45.890625 
Q 42.4375 48.1875 37.796875 48.1875 
Q 30.5625 48.1875 25.34375 43.375 
Q 20.125 38.578125 18.5 30.328125 
L 12.5 0 
L 3.515625 0 
L 14.109375 54.6875 
L 23.09375 54.6875 
L 21.296875 46.09375 
Q 25.046875 50.828125 30.3125 53.40625 
Q 35.59375 56 41.40625 56 
Q 48.640625 56 52.609375 52.09375 
Q 56.59375 48.1875 56.59375 41.109375 
Q 56.59375 39.359375 56.375 37.359375 
Q 56.15625 35.359375 55.71875 33.015625 
z
" id="DejaVuSans-Oblique-110"/>
      <path d="M 10.59375 45.40625 
L 73.1875 45.40625 
L 73.1875 37.203125 
L 10.59375 37.203125 
z
M 10.59375 25.484375 
L 73.1875 25.484375 
L 73.1875 17.1875 
L 10.59375 17.1875 
z
" id="DejaVuSans-61"/>
      <path d="M 19.671875 34.8125 
L 19.671875 8.109375 
L 35.5 8.109375 
Q 43.453125 8.109375 47.28125 11.40625 
Q 51.125 14.703125 51.125 21.484375 
Q 51.125 28.328125 47.28125 31.5625 
Q 43.453125 34.8125 35.5 34.8125 
z
M 19.671875 64.796875 
L 19.671875 42.828125 
L 34.28125 42.828125 
Q 41.5 42.828125 45.03125 45.53125 
Q 48.578125 48.25 48.578125 53.8125 
Q 48.578125 59.328125 45.03125 62.0625 
Q 41.5 64.796875 34.28125 64.796875 
z
M 9.8125 72.90625 
L 35.015625 72.90625 
Q 46.296875 72.90625 52.390625 68.21875 
Q 58.5 63.53125 58.5 54.890625 
Q 58.5 48.1875 55.375 44.234375 
Q 52.25 40.28125 46.1875 39.3125 
Q 53.46875 37.75 57.5 32.78125 
Q 61.53125 27.828125 61.53125 20.40625 
Q 61.53125 10.640625 54.890625 5.3125 
Q 48.25 0 35.984375 0 
L 9.8125 0 
z
" id="DejaVuSans-66"/>
      <path d="M 48.78125 52.59375 
L 48.78125 44.1875 
Q 44.96875 46.296875 41.140625 47.34375 
Q 37.3125 48.390625 33.40625 48.390625 
Q 24.65625 48.390625 19.8125 42.84375 
Q 14.984375 37.3125 14.984375 27.296875 
Q 14.984375 17.28125 19.8125 11.734375 
Q 24.65625 6.203125 33.40625 6.203125 
Q 37.3125 6.203125 41.140625 7.25 
Q 44.96875 8.296875 48.78125 10.40625 
L 48.78125 2.09375 
Q 45.015625 0.34375 40.984375 -0.53125 
Q 36.96875 -1.421875 32.421875 -1.421875 
Q 20.0625 -1.421875 12.78125 6.34375 
Q 5.515625 14.109375 5.515625 27.296875 
Q 5.515625 40.671875 12.859375 48.328125 
Q 20.21875 56 33.015625 56 
Q 37.15625 56 41.109375 55.140625 
Q 45.0625 54.296875 48.78125 52.59375 
z
" id="DejaVuSans-99"/>
      <path d="M 45.40625 46.390625 
L 45.40625 75.984375 
L 54.390625 75.984375 
L 54.390625 0 
L 45.40625 0 
L 45.40625 8.203125 
Q 42.578125 3.328125 38.25 0.953125 
Q 33.9375 -1.421875 27.875 -1.421875 
Q 17.96875 -1.421875 11.734375 6.484375 
Q 5.515625 14.40625 5.515625 27.296875 
Q 5.515625 40.1875 11.734375 48.09375 
Q 17.96875 56 27.875 56 
Q 33.9375 56 38.25 53.625 
Q 42.578125 51.265625 45.40625 46.390625 
z
M 14.796875 27.296875 
Q 14.796875 17.390625 18.875 11.75 
Q 22.953125 6.109375 30.078125 6.109375 
Q 37.203125 6.109375 41.296875 11.75 
Q 45.40625 17.390625 45.40625 27.296875 
Q 45.40625 37.203125 41.296875 42.84375 
Q 37.203125 48.484375 30.078125 48.484375 
Q 22.953125 48.484375 18.875 42.84375 
Q 14.796875 37.203125 14.796875 27.296875 
z
" id="DejaVuSans-100"/>
     </defs>
     <g transform="translate(124.5 86.8675)scale(0.16 -0.16)">
      <use transform="translate(0 0.015625)" xlink:href="#DejaVuSans-Oblique-110"/>
      <use transform="translate(82.861328 0.015625)" xlink:href="#DejaVuSans-61"/>
      <use transform="translate(186.132812 0.015625)" xlink:href="#DejaVuSans-49"/>
      <use transform="translate(249.755859 0.015625)" xlink:href="#DejaVuSans-48"/>
      <use transform="translate(313.378906 0.015625)" xlink:href="#DejaVuSans-32"/>
      <use transform="translate(345.166016 0.015625)" xlink:href="#DejaVuSans-40"/>
      <use transform="translate(384.179688 0.015625)" xlink:href="#DejaVuSans-66"/>
      <use transform="translate(452.783203 0.015625)" xlink:href="#DejaVuSans-97"/>
      <use transform="translate(514.0625 0.015625)" xlink:href="#DejaVuSans-108"/>
      <use transform="translate(541.845703 0.015625)" xlink:href="#DejaVuSans-97"/>
      <use transform="translate(603.125 0.015625)" xlink:href="#DejaVuSans-110"/>
      <use transform="translate(666.503906 0.015625)" xlink:href="#DejaVuSans-99"/>
      <use transform="translate(721.484375 0.015625)" xlink:href="#DejaVuSans-101"/>
      <use transform="translate(783.007812 0.015625)" xlink:href="#DejaVuSans-100"/>
      <use transform="translate(846.484375 0.015625)" xlink:href="#DejaVuSans-41"/>
     </g>
    </g>
    <g id="line2d_51">
     <path d="M 79.7 104.7525 
L 111.7 104.7525 
" style="fill:none;stroke:#ff7f0e;stroke-linecap:square;stroke-width:1.5;"/>
    </g>
    <g id="line2d_52"/>
    <g id="text_15">
     <!-- $n =$100 (Balanced) -->
     <g transform="translate(124.5 110.3525)scale(0.16 -0.16)">
      <use transform="translate(0 0.015625)" xlink:href="#DejaVuSans-Oblique-110"/>
      <use transform="translate(82.861328 0.015625)" xlink:href="#DejaVuSans-61"/>
      <use transform="translate(186.132812 0.015625)" xlink:href="#DejaVuSans-49"/>
      <use transform="translate(249.755859 0.015625)" xlink:href="#DejaVuSans-48"/>
      <use transform="translate(313.378906 0.015625)" xlink:href="#DejaVuSans-48"/>
      <use transform="translate(377.001953 0.015625)" xlink:href="#DejaVuSans-32"/>
      <use transform="translate(408.789062 0.015625)" xlink:href="#DejaVuSans-40"/>
      <use transform="translate(447.802734 0.015625)" xlink:href="#DejaVuSans-66"/>
      <use transform="translate(516.40625 0.015625)" xlink:href="#DejaVuSans-97"/>
      <use transform="translate(577.685547 0.015625)" xlink:href="#DejaVuSans-108"/>
      <use transform="translate(605.46875 0.015625)" xlink:href="#DejaVuSans-97"/>
      <use transform="translate(666.748047 0.015625)" xlink:href="#DejaVuSans-110"/>
      <use transform="translate(730.126953 0.015625)" xlink:href="#DejaVuSans-99"/>
      <use transform="translate(785.107422 0.015625)" xlink:href="#DejaVuSans-101"/>
      <use transform="translate(846.630859 0.015625)" xlink:href="#DejaVuSans-100"/>
      <use transform="translate(910.107422 0.015625)" xlink:href="#DejaVuSans-41"/>
     </g>
    </g>
    <g id="line2d_53">
     <path d="M 79.7 128.2375 
L 111.7 128.2375 
" style="fill:none;stroke:#2ca02c;stroke-linecap:square;stroke-width:1.5;"/>
    </g>
    <g id="line2d_54"/>
    <g id="text_16">
     <!-- $n =$1,000 (Balanced) -->
     <defs>
      <path d="M 11.71875 12.40625 
L 22.015625 12.40625 
L 22.015625 4 
L 14.015625 -11.625 
L 7.71875 -11.625 
L 11.71875 4 
z
" id="DejaVuSans-44"/>
     </defs>
     <g transform="translate(124.5 133.8375)scale(0.16 -0.16)">
      <use transform="translate(0 0.015625)" xlink:href="#DejaVuSans-Oblique-110"/>
      <use transform="translate(82.861328 0.015625)" xlink:href="#DejaVuSans-61"/>
      <use transform="translate(186.132812 0.015625)" xlink:href="#DejaVuSans-49"/>
      <use transform="translate(249.755859 0.015625)" xlink:href="#DejaVuSans-44"/>
      <use transform="translate(281.542969 0.015625)" xlink:href="#DejaVuSans-48"/>
      <use transform="translate(345.166016 0.015625)" xlink:href="#DejaVuSans-48"/>
      <use transform="translate(408.789062 0.015625)" xlink:href="#DejaVuSans-48"/>
      <use transform="translate(472.412109 0.015625)" xlink:href="#DejaVuSans-32"/>
      <use transform="translate(504.199219 0.015625)" xlink:href="#DejaVuSans-40"/>
      <use transform="translate(543.212891 0.015625)" xlink:href="#DejaVuSans-66"/>
      <use transform="translate(611.816406 0.015625)" xlink:href="#DejaVuSans-97"/>
      <use transform="translate(673.095703 0.015625)" xlink:href="#DejaVuSans-108"/>
      <use transform="translate(700.878906 0.015625)" xlink:href="#DejaVuSans-97"/>
      <use transform="translate(762.158203 0.015625)" xlink:href="#DejaVuSans-110"/>
      <use transform="translate(825.537109 0.015625)" xlink:href="#DejaVuSans-99"/>
      <use transform="translate(880.517578 0.015625)" xlink:href="#DejaVuSans-101"/>
      <use transform="translate(942.041016 0.015625)" xlink:href="#DejaVuSans-100"/>
      <use transform="translate(1005.517578 0.015625)" xlink:href="#DejaVuSans-41"/>
     </g>
    </g>
    <g id="line2d_55">
     <path d="M 79.7 151.7225 
L 111.7 151.7225 
" style="fill:none;stroke:#d62728;stroke-linecap:square;stroke-width:1.5;"/>
    </g>
    <g id="line2d_56"/>
    <g id="text_17">
     <!-- $n =$10,000 (Balanced) -->
     <g transform="translate(124.5 157.3225)scale(0.16 -0.16)">
      <use transform="translate(0 0.015625)" xlink:href="#DejaVuSans-Oblique-110"/>
      <use transform="translate(82.861328 0.015625)" xlink:href="#DejaVuSans-61"/>
      <use transform="translate(186.132812 0.015625)" xlink:href="#DejaVuSans-49"/>
      <use transform="translate(249.755859 0.015625)" xlink:href="#DejaVuSans-48"/>
      <use transform="translate(313.378906 0.015625)" xlink:href="#DejaVuSans-44"/>
      <use transform="translate(345.166016 0.015625)" xlink:href="#DejaVuSans-48"/>
      <use transform="translate(408.789062 0.015625)" xlink:href="#DejaVuSans-48"/>
      <use transform="translate(472.412109 0.015625)" xlink:href="#DejaVuSans-48"/>
      <use transform="translate(536.035156 0.015625)" xlink:href="#DejaVuSans-32"/>
      <use transform="translate(567.822266 0.015625)" xlink:href="#DejaVuSans-40"/>
      <use transform="translate(606.835938 0.015625)" xlink:href="#DejaVuSans-66"/>
      <use transform="translate(675.439453 0.015625)" xlink:href="#DejaVuSans-97"/>
      <use transform="translate(736.71875 0.015625)" xlink:href="#DejaVuSans-108"/>
      <use transform="translate(764.501953 0.015625)" xlink:href="#DejaVuSans-97"/>
      <use transform="translate(825.78125 0.015625)" xlink:href="#DejaVuSans-110"/>
      <use transform="translate(889.160156 0.015625)" xlink:href="#DejaVuSans-99"/>
      <use transform="translate(944.140625 0.015625)" xlink:href="#DejaVuSans-101"/>
      <use transform="translate(1005.664062 0.015625)" xlink:href="#DejaVuSans-100"/>
      <use transform="translate(1069.140625 0.015625)" xlink:href="#DejaVuSans-41"/>
     </g>
    </g>
    <g id="line2d_57">
     <path d="M 79.7 175.2075 
L 111.7 175.2075 
" style="fill:none;stroke:#1f77b4;stroke-dasharray:5.55,2.4;stroke-dashoffset:0;stroke-width:1.5;"/>
    </g>
    <g id="line2d_58"/>
    <g id="text_18">
     <!-- $n =$10 (Imbalanced) -->
     <defs>
      <path d="M 9.8125 72.90625 
L 19.671875 72.90625 
L 19.671875 0 
L 9.8125 0 
z
" id="DejaVuSans-73"/>
      <path d="M 48.6875 27.296875 
Q 48.6875 37.203125 44.609375 42.84375 
Q 40.53125 48.484375 33.40625 48.484375 
Q 26.265625 48.484375 22.1875 42.84375 
Q 18.109375 37.203125 18.109375 27.296875 
Q 18.109375 17.390625 22.1875 11.75 
Q 26.265625 6.109375 33.40625 6.109375 
Q 40.53125 6.109375 44.609375 11.75 
Q 48.6875 17.390625 48.6875 27.296875 
z
M 18.109375 46.390625 
Q 20.953125 51.265625 25.265625 53.625 
Q 29.59375 56 35.59375 56 
Q 45.5625 56 51.78125 48.09375 
Q 58.015625 40.1875 58.015625 27.296875 
Q 58.015625 14.40625 51.78125 6.484375 
Q 45.5625 -1.421875 35.59375 -1.421875 
Q 29.59375 -1.421875 25.265625 0.953125 
Q 20.953125 3.328125 18.109375 8.203125 
L 18.109375 0 
L 9.078125 0 
L 9.078125 75.984375 
L 18.109375 75.984375 
z
" id="DejaVuSans-98"/>
     </defs>
     <g transform="translate(124.5 180.8075)scale(0.16 -0.16)">
      <use transform="translate(0 0.015625)" xlink:href="#DejaVuSans-Oblique-110"/>
      <use transform="translate(82.861328 0.015625)" xlink:href="#DejaVuSans-61"/>
      <use transform="translate(186.132812 0.015625)" xlink:href="#DejaVuSans-49"/>
      <use transform="translate(249.755859 0.015625)" xlink:href="#DejaVuSans-48"/>
      <use transform="translate(313.378906 0.015625)" xlink:href="#DejaVuSans-32"/>
      <use transform="translate(345.166016 0.015625)" xlink:href="#DejaVuSans-40"/>
      <use transform="translate(384.179688 0.015625)" xlink:href="#DejaVuSans-73"/>
      <use transform="translate(410.046875 0.015625)" xlink:href="#DejaVuSans-109"/>
      <use transform="translate(507.458984 0.015625)" xlink:href="#DejaVuSans-98"/>
      <use transform="translate(570.935547 0.015625)" xlink:href="#DejaVuSans-97"/>
      <use transform="translate(632.214844 0.015625)" xlink:href="#DejaVuSans-108"/>
      <use transform="translate(659.998047 0.015625)" xlink:href="#DejaVuSans-97"/>
      <use transform="translate(721.277344 0.015625)" xlink:href="#DejaVuSans-110"/>
      <use transform="translate(784.65625 0.015625)" xlink:href="#DejaVuSans-99"/>
      <use transform="translate(839.636719 0.015625)" xlink:href="#DejaVuSans-101"/>
      <use transform="translate(901.160156 0.015625)" xlink:href="#DejaVuSans-100"/>
      <use transform="translate(964.636719 0.015625)" xlink:href="#DejaVuSans-41"/>
     </g>
    </g>
    <g id="line2d_59">
     <path d="M 79.7 198.6925 
L 111.7 198.6925 
" style="fill:none;stroke:#ff7f0e;stroke-dasharray:5.55,2.4;stroke-dashoffset:0;stroke-width:1.5;"/>
    </g>
    <g id="line2d_60"/>
    <g id="text_19">
     <!-- $n =$100 (Imbalanced) -->
     <g transform="translate(124.5 204.2925)scale(0.16 -0.16)">
      <use transform="translate(0 0.015625)" xlink:href="#DejaVuSans-Oblique-110"/>
      <use transform="translate(82.861328 0.015625)" xlink:href="#DejaVuSans-61"/>
      <use transform="translate(186.132812 0.015625)" xlink:href="#DejaVuSans-49"/>
      <use transform="translate(249.755859 0.015625)" xlink:href="#DejaVuSans-48"/>
      <use transform="translate(313.378906 0.015625)" xlink:href="#DejaVuSans-48"/>
      <use transform="translate(377.001953 0.015625)" xlink:href="#DejaVuSans-32"/>
      <use transform="translate(408.789062 0.015625)" xlink:href="#DejaVuSans-40"/>
      <use transform="translate(447.802734 0.015625)" xlink:href="#DejaVuSans-73"/>
      <use transform="translate(473.669922 0.015625)" xlink:href="#DejaVuSans-109"/>
      <use transform="translate(571.082031 0.015625)" xlink:href="#DejaVuSans-98"/>
      <use transform="translate(634.558594 0.015625)" xlink:href="#DejaVuSans-97"/>
      <use transform="translate(695.837891 0.015625)" xlink:href="#DejaVuSans-108"/>
      <use transform="translate(723.621094 0.015625)" xlink:href="#DejaVuSans-97"/>
      <use transform="translate(784.900391 0.015625)" xlink:href="#DejaVuSans-110"/>
      <use transform="translate(848.279297 0.015625)" xlink:href="#DejaVuSans-99"/>
      <use transform="translate(903.259766 0.015625)" xlink:href="#DejaVuSans-101"/>
      <use transform="translate(964.783203 0.015625)" xlink:href="#DejaVuSans-100"/>
      <use transform="translate(1028.259766 0.015625)" xlink:href="#DejaVuSans-41"/>
     </g>
    </g>
    <g id="line2d_61">
     <path d="M 79.7 222.1775 
L 111.7 222.1775 
" style="fill:none;stroke:#2ca02c;stroke-dasharray:5.55,2.4;stroke-dashoffset:0;stroke-width:1.5;"/>
    </g>
    <g id="line2d_62"/>
    <g id="text_20">
     <!-- $n =$1,000 (Imbalanced) -->
     <g transform="translate(124.5 227.7775)scale(0.16 -0.16)">
      <use transform="translate(0 0.015625)" xlink:href="#DejaVuSans-Oblique-110"/>
      <use transform="translate(82.861328 0.015625)" xlink:href="#DejaVuSans-61"/>
      <use transform="translate(186.132812 0.015625)" xlink:href="#DejaVuSans-49"/>
      <use transform="translate(249.755859 0.015625)" xlink:href="#DejaVuSans-44"/>
      <use transform="translate(281.542969 0.015625)" xlink:href="#DejaVuSans-48"/>
      <use transform="translate(345.166016 0.015625)" xlink:href="#DejaVuSans-48"/>
      <use transform="translate(408.789062 0.015625)" xlink:href="#DejaVuSans-48"/>
      <use transform="translate(472.412109 0.015625)" xlink:href="#DejaVuSans-32"/>
      <use transform="translate(504.199219 0.015625)" xlink:href="#DejaVuSans-40"/>
      <use transform="translate(543.212891 0.015625)" xlink:href="#DejaVuSans-73"/>
      <use transform="translate(569.080078 0.015625)" xlink:href="#DejaVuSans-109"/>
      <use transform="translate(666.492188 0.015625)" xlink:href="#DejaVuSans-98"/>
      <use transform="translate(729.96875 0.015625)" xlink:href="#DejaVuSans-97"/>
      <use transform="translate(791.248047 0.015625)" xlink:href="#DejaVuSans-108"/>
      <use transform="translate(819.03125 0.015625)" xlink:href="#DejaVuSans-97"/>
      <use transform="translate(880.310547 0.015625)" xlink:href="#DejaVuSans-110"/>
      <use transform="translate(943.689453 0.015625)" xlink:href="#DejaVuSans-99"/>
      <use transform="translate(998.669922 0.015625)" xlink:href="#DejaVuSans-101"/>
      <use transform="translate(1060.193359 0.015625)" xlink:href="#DejaVuSans-100"/>
      <use transform="translate(1123.669922 0.015625)" xlink:href="#DejaVuSans-41"/>
     </g>
    </g>
    <g id="line2d_63">
     <path d="M 79.7 245.6625 
L 111.7 245.6625 
" style="fill:none;stroke:#d62728;stroke-dasharray:5.55,2.4;stroke-dashoffset:0;stroke-width:1.5;"/>
    </g>
    <g id="line2d_64"/>
    <g id="text_21">
     <!-- $n =$10,000 (Imbalanced) -->
     <g transform="translate(124.5 251.2625)scale(0.16 -0.16)">
      <use transform="translate(0 0.015625)" xlink:href="#DejaVuSans-Oblique-110"/>
      <use transform="translate(82.861328 0.015625)" xlink:href="#DejaVuSans-61"/>
      <use transform="translate(186.132812 0.015625)" xlink:href="#DejaVuSans-49"/>
      <use transform="translate(249.755859 0.015625)" xlink:href="#DejaVuSans-48"/>
      <use transform="translate(313.378906 0.015625)" xlink:href="#DejaVuSans-44"/>
      <use transform="translate(345.166016 0.015625)" xlink:href="#DejaVuSans-48"/>
      <use transform="translate(408.789062 0.015625)" xlink:href="#DejaVuSans-48"/>
      <use transform="translate(472.412109 0.015625)" xlink:href="#DejaVuSans-48"/>
      <use transform="translate(536.035156 0.015625)" xlink:href="#DejaVuSans-32"/>
      <use transform="translate(567.822266 0.015625)" xlink:href="#DejaVuSans-40"/>
      <use transform="translate(606.835938 0.015625)" xlink:href="#DejaVuSans-73"/>
      <use transform="translate(632.703125 0.015625)" xlink:href="#DejaVuSans-109"/>
      <use transform="translate(730.115234 0.015625)" xlink:href="#DejaVuSans-98"/>
      <use transform="translate(793.591797 0.015625)" xlink:href="#DejaVuSans-97"/>
      <use transform="translate(854.871094 0.015625)" xlink:href="#DejaVuSans-108"/>
      <use transform="translate(882.654297 0.015625)" xlink:href="#DejaVuSans-97"/>
      <use transform="translate(943.933594 0.015625)" xlink:href="#DejaVuSans-110"/>
      <use transform="translate(1007.3125 0.015625)" xlink:href="#DejaVuSans-99"/>
      <use transform="translate(1062.292969 0.015625)" xlink:href="#DejaVuSans-101"/>
      <use transform="translate(1123.816406 0.015625)" xlink:href="#DejaVuSans-100"/>
      <use transform="translate(1187.292969 0.015625)" xlink:href="#DejaVuSans-41"/>
     </g>
    </g>
   </g>
  </g>
 </g>
 <defs>
  <clipPath id="pfca7d3ba27">
   <rect height="265.7" width="571.9" x="65.3" y="31.8"/>
  </clipPath>
 </defs>
</svg>
